<svg id="Layer_1" data-name="Layer 1" xmlns="http://www.w3.org/2000/svg" viewBox="0 0 530.68 531.69"><defs><style>.cls-1{fill:#7d3a2a;}.cls-1,.cls-2,.cls-3,.cls-4,.cls-5{stroke:#231f20;stroke-linecap:round;stroke-linejoin:round;}.cls-2,.cls-5{fill:none;}.cls-3{fill:#8d3c31;}.cls-4{fill:#66130c;}.cls-5{stroke-width:2px;}</style></defs><polygon class="cls-1" points="304.21 302.1 278.83 302.28 304.21 302.1 304.21 302.1"/><rect class="cls-2" x="318.81" y="346.99" height="0.35"/><polygon class="cls-2" points="341.69 328.46 341.15 328.63 337.39 340.06 318.74 346.94 318.76 347 338.05 340.05 341.73 328.48 341.69 328.46"/><rect class="cls-2" x="318.75" y="346.93" height="0.07" transform="translate(-91.42 115.13) rotate(-17.95)"/><polygon class="cls-2" points="318.56 347 318.69 347.4 318.87 347.33 318.76 347 318.56 347"/><polygon class="cls-2" points="304.22 302.12 318.74 346.94 318.74 346.94 304.22 302.12"/><polygon class="cls-3" points="278.83 302.28 271.27 326.01 304.22 302.12 304.21 302.1 278.83 302.28"/><polygon class="cls-2" points="304.21 302.1 304.22 302.12 304.25 302.1 304.21 302.1"/><polygon class="cls-3" points="337.39 340.06 341.15 328.63 341.69 328.46 304.95 302.09 304.25 302.1 304.25 302.1 304.22 302.12 318.74 346.94 337.39 340.06"/><polygon class="cls-2" points="318.74 346.94 318.56 347 318.76 347 318.74 346.94"/><polygon class="cls-4" points="350.22 301.77 349.99 301.77 349.92 301.97 351.89 304.78 359.56 304.72 373.29 323.88 351.06 331.43 345.28 327.28 341.69 328.46 341.73 328.48 338.05 340.05 379.24 325.91 353.72 290.77 350.22 301.77"/><polygon class="cls-2" points="344.63 272.82 343.85 272.24 344.3 273.06 344.63 272.82"/><polygon class="cls-2" points="343.85 272.24 343.79 272.2 344.26 273.09 344.3 273.06 343.85 272.24"/><rect class="cls-2" x="344.26" y="273.08" width="0.04"/><rect class="cls-2" x="344.26" y="272.94" width="0.41" transform="translate(-94.64 254.61) rotate(-36)"/><polygon class="cls-2" points="344.3 273.06 353.81 290.48 353.72 290.77 379.24 325.91 379.8 325.72 366.74 289.13 344.63 272.82 344.3 273.06"/><polygon class="cls-2" points="357.56 263.45 344.63 272.82 344.63 272.82 357.56 263.45"/><polygon class="cls-2" points="366.74 289.13 357.56 263.45 344.63 272.82 366.74 289.13"/><rect class="cls-2" x="299.94" y="287.46" width="48.99" transform="translate(-108.24 313.61) rotate(-45)"/><polygon class="cls-2" points="345.28 327.28 351.06 331.43 373.29 323.88 359.56 304.72 351.89 304.78 363.44 321.32 345.28 327.28"/><polygon class="cls-3" points="270.69 277.51 257.7 287.1 262.76 302.39 278.83 302.28 283.74 286.87 270.69 277.51"/><polygon class="cls-2" points="271.13 326.45 270.89 326.28 270.7 326.42 270.92 327.09 271.13 326.45"/><polygon class="cls-3" points="345.28 327.28 363.44 321.32 351.89 304.78 314.28 305.04 345.28 327.28"/><rect class="cls-2" x="237.43" y="301.85" width="0.59"/><polygon class="cls-2" points="237.49 302.03 237.78 302.24 237.96 301.68 237.49 302.03"/><polygon class="cls-4" points="341.69 328.46 345.28 327.28 314.28 305.04 351.89 304.78 349.92 301.97 349.99 301.77 304.95 302.09 341.69 328.46"/><rect class="cls-2" x="237.49" y="302.03" transform="translate(-140.39 371.52) rotate(-62.24)"/><polygon class="cls-2" points="237.49 302.03 237.78 302.24 237.49 302.03 237.49 302.03"/><polygon class="cls-4" points="303.99 301.4 283.74 286.87 278.83 302.28 304.21 302.1 303.99 301.4"/><polygon class="cls-2" points="304.21 302.1 304.25 302.1 304.21 302.1 304.21 302.1"/><polygon class="cls-2" points="304.6 301.84 304.6 301.84 304.27 302.08 304.6 301.84"/><polygon class="cls-2" points="304.25 302.1 304.95 302.09 304.6 301.84 304.27 302.08 304.25 302.1"/><polygon class="cls-2" points="304.25 302.1 304.25 302.1 304.27 302.08 304.6 301.84 303.99 301.4 304.21 302.1 304.25 302.1"/><polygon class="cls-2" points="353.72 290.77 353.81 290.48 344.3 273.06 344.26 273.09 353.64 290.66 353.72 290.77"/><polygon class="cls-2" points="304.6 301.84 304.6 301.84 304.95 302.09 304.6 301.84"/><polygon class="cls-2" points="349.99 301.77 350.22 301.77 353.72 290.77 353.64 290.66 349.99 301.77"/><polygon class="cls-3" points="349.99 301.77 353.64 290.66 344.26 273.09 304.6 301.84 304.95 302.09 349.99 301.77"/><polygon class="cls-2" points="303.99 301.4 303.99 301.4 283.74 286.87 303.99 301.4"/><polygon class="cls-2" points="197.06 272.68 187.41 292.06 197.06 272.68 197.06 272.68"/><polygon class="cls-2" points="200.42 263.32 200.2 263.32 200.2 263.36 198.05 263.32 184.19 263.34 197.06 272.68 200.19 268 200.42 263.32"/><polygon class="cls-4" points="237.49 302.03 237.96 301.68 250.17 264.31 249.82 263.26 216.19 263.3 200.42 263.32 200.19 268 197.06 272.68 197.06 272.68 237.49 302.03"/><polygon class="cls-2" points="237.49 302.03 236.75 302.57 237.49 302.03 237.49 302.03"/><polygon class="cls-3" points="197.06 272.68 187.41 292.06 191 302.9 236.75 302.57 237.49 302.03 197.06 272.68"/><polygon class="cls-2" points="201.28 243.32 202.47 199.16 201.81 198.94 190.9 233.4 200.19 263.32 200.2 263.32 201.28 243.32"/><polygon class="cls-2" points="200.19 263.32 198.05 263.32 200.2 263.36 200.19 263.32"/><polygon class="cls-2" points="200.47 198.48 179.79 197.57 190.9 233.4 201.81 198.94 200.47 198.48"/><polygon class="cls-2" points="200.2 263.32 200.19 263.32 200.2 263.36 200.2 263.32"/><polygon class="cls-2" points="237.67 302.57 237.67 302.57 237.67 302.57 237.67 302.57"/><rect class="cls-2" x="304.6" y="301.84"/><polygon class="cls-2" points="238.22 302.57 238.23 302.57 262.76 302.39 238.22 302.57"/><polygon class="cls-4" points="271.27 326.01 278.83 302.28 262.76 302.39 270.58 326.05 270.89 326.28 271.27 326.01"/><polygon class="cls-2" points="270.58 326.05 270.7 326.42 270.89 326.28 270.58 326.05"/><polygon class="cls-2" points="201.93 198.54 200.47 198.48 201.81 198.94 201.93 198.54"/><polygon class="cls-2" points="236.75 302.57 237.67 302.57 237.67 302.57 236.75 302.57"/><polygon class="cls-2" points="237.78 302.24 237.49 302.03 236.75 302.57 237.67 302.57 237.78 302.24"/><rect class="cls-2" x="237.67" y="302.57" width="0.56"/><polygon class="cls-3" points="238.23 302.57 270.58 326.05 262.76 302.39 238.23 302.57"/><polygon class="cls-2" points="291.28 263.21 291.44 262.69 291.28 263.21 291.28 263.21"/><polygon class="cls-2" points="291.61 263.21 291.44 262.69 291.28 263.21 291.61 263.21"/><polygon class="cls-2" points="202.47 199.16 202.49 198.57 201.93 198.54 201.81 198.94 202.47 199.16"/><polygon class="cls-2" points="291.44 262.69 291.66 262.01 291.44 262.69 291.44 262.69"/><rect class="cls-2" x="304.29" y="301.25" height="0.75" transform="translate(-98.56 447.5) rotate(-64.65)"/><polygon class="cls-2" points="291.4 262.57 291.44 262.69 291.66 262.01 291.31 262.27 291.4 262.57"/><polygon class="cls-2" points="257.7 287.1 237.96 301.68 237.96 301.68 257.7 287.1"/><polygon class="cls-3" points="283.74 286.87 303.99 301.4 291.61 263.21 291.28 263.21 283.74 286.87"/><polygon class="cls-2" points="291.31 262.27 290.04 263.21 291.28 263.21 291.44 262.69 291.4 262.57 291.31 262.27"/><polygon class="cls-4" points="201.28 243.32 200.2 263.32 200.42 263.32 201.28 243.32 211.52 235.67 211.52 231.13 206.22 227.33 206.42 204.29 229 210.56 231.44 217.96 235.16 218.9 243.7 213.23 202.47 199.16 201.28 243.32"/><polygon class="cls-2" points="241.3 200.27 208.94 176.39 202.54 196.62 202.49 198.57 241.3 200.27"/><polygon class="cls-2" points="202.47 199.16 243.7 213.23 264.25 217.21 241.3 200.27 202.49 198.57 202.47 199.16"/><polygon class="cls-2" points="202.54 196.62 201.93 198.54 202.49 198.57 202.54 196.62"/><polygon class="cls-3" points="249.51 262.31 250.57 263.07 265.32 217.95 243.7 213.23 235.16 218.9 249.51 262.31"/><polygon class="cls-3" points="250.83 263.26 290.04 263.21 291.31 262.27 276.87 217.71 271.04 219.44 265.32 217.95 250.57 263.07 250.83 263.26"/><polygon class="cls-4" points="291.66 262.01 305.43 218.79 295.51 212.16 276.87 217.71 285.06 243 291.31 262.27 291.66 262.01"/><polygon class="cls-4" points="265.32 217.95 265.32 217.95 250.57 263.07 265.32 217.95"/><polygon class="cls-4" points="237.96 301.68 237.78 302.24 238.22 302.57 262.76 302.39 257.7 287.1 237.96 301.68"/><polygon class="cls-2" points="160.4 327.07 160.74 327.3 161.15 326.74 160.59 326.55 160.4 327.07"/><polygon class="cls-4" points="177.65 190.7 179.79 197.57 200.47 198.48 177.65 190.7"/><polygon class="cls-2" points="211.23 169.14 203.4 164.79 203.2 172.15 208.94 176.39 211.23 169.14"/><polygon class="cls-2" points="295.06 211.86 276.87 217.71 295.51 212.16 295.06 211.86"/><polygon class="cls-2" points="100.63 164.42 145.53 179.73 169.78 188.01 166.22 165.25 100.63 164.42"/><polygon class="cls-2" points="195.67 328.29 189.69 332.71 167.6 325.22 180.77 305.83 188.38 305.78 190.47 302.79 186.74 291.49 161.15 326.74 203.28 341.21 199.24 329.46 195.67 328.29"/><polygon class="cls-3" points="195.67 328.29 226.52 305.51 188.38 305.78 176.94 322.15 195.67 328.29"/><polygon class="cls-2" points="196.6 273.02 173.65 289.96 160.59 326.55 161.15 326.74 186.74 291.49 196.6 273.02"/><polygon class="cls-4" points="167.6 325.22 189.69 332.71 195.67 328.29 176.94 322.15 188.38 305.78 180.77 305.83 167.6 325.22"/><polygon class="cls-2" points="169.78 188.01 171.22 197.19 179.79 197.57 177.65 190.7 169.78 188.01"/><polygon class="cls-2" points="338.93 197.39 337.46 197.45 337.58 197.85 338.93 197.39"/><polygon class="cls-2" points="337.46 197.45 336.85 195.54 336.9 197.48 337.46 197.45"/><polygon class="cls-2" points="336.92 198.07 337.58 197.85 337.46 197.45 336.9 197.48 336.92 198.07"/><polygon class="cls-2" points="336.85 195.54 330.45 175.3 298.1 199.18 336.9 197.48 336.85 195.54"/><polygon class="cls-4" points="336.19 171.06 330.45 175.3 336.85 195.54 336.19 171.06"/><polygon class="cls-2" points="336 163.71 328.16 168.05 330.45 175.3 336.19 171.06 336 163.71"/><polygon class="cls-2" points="368.17 196.1 369.61 186.92 361.74 189.61 359.61 196.48 368.17 196.1"/><polygon class="cls-2" points="361.74 189.61 338.93 197.39 359.61 196.48 361.74 189.61"/><polygon class="cls-2" points="203.2 172.15 202.54 196.62 208.94 176.39 203.2 172.15"/><polygon class="cls-2" points="310.14 355.72 309.44 355.19 300.57 385.59 310.14 355.72"/><polygon class="cls-2" points="291.84 434.89 295.93 426.54 289.13 421.32 286.93 428.17 291.84 434.89"/><polygon class="cls-4" points="286.93 428.17 289.13 421.32 272.71 408.71 286.93 428.17"/><polygon class="cls-2" points="217.76 366.53 217.92 366.66 217.84 366.47 217.76 366.53"/><polygon class="cls-2" points="230.66 355.45 230.66 355.45 270.7 326.42 230.66 355.45"/><polygon class="cls-2" points="472.91 261.92 425.08 262.11 405.35 308.68 472.91 261.92"/><polygon class="cls-2" points="442.45 412.99 422.33 350.56 399.53 353.86 414.59 374.6 442.45 412.99"/><polygon class="cls-2" points="394.64 347.13 380.49 327.62 387.45 347.11 394.64 347.13"/><polygon class="cls-2" points="390.33 355.19 399.53 353.86 394.64 347.13 387.45 347.11 390.33 355.19"/><polygon class="cls-2" points="152.94 347.94 190.46 347.88 160.74 327.3 159.9 328.45 152.94 347.94"/><polygon class="cls-2" points="135.55 318.08 158.75 325.92 141.3 313.84 135.55 318.08"/><polygon class="cls-2" points="221.83 347.83 207.86 342.68 221.46 348.95 221.83 347.83"/><polygon class="cls-4" points="173.65 289.96 141.3 313.84 158.75 325.92 160.59 326.55 173.65 289.96"/><polygon class="cls-2" points="159.9 328.45 160.74 327.3 160.4 327.07 159.9 328.45"/><polygon class="cls-2" points="135.04 309.51 128.58 315.72 135.55 318.08 141.3 313.84 135.04 309.51"/><polygon class="cls-2" points="140.86 354.69 150.06 356.02 152.94 347.94 145.75 347.95 140.86 354.69"/><polygon class="cls-4" points="145.75 347.95 152.94 347.94 159.9 328.45 145.75 347.95"/><polygon class="cls-2" points="158.75 325.92 160.4 327.07 160.59 326.55 158.75 325.92"/><polygon class="cls-2" points="250.52 263.26 250.57 263.08 249.51 262.31 249.82 263.26 250.52 263.26"/><polygon class="cls-2" points="250.57 263.08 250.52 263.26 250.82 263.26 250.57 263.08"/><polygon class="cls-2" points="296 212.02 295.51 212.16 305.43 218.79 296 212.02"/><polygon class="cls-2" points="250.57 263.08 250.57 263.07 250.57 263.08 250.57 263.08"/><rect class="cls-2" x="250.7" y="263.01" height="0.31"/><polygon class="cls-4" points="250.52 263.26 250.17 264.31 257.7 287.1 270.69 277.51 250.82 263.26 250.52 263.26"/><polygon class="cls-2" points="249.82 263.26 249.82 263.26 250.52 263.26 249.82 263.26"/><polygon class="cls-2" points="250.57 263.08 250.52 263.26 250.57 263.08 250.57 263.08"/><polygon class="cls-3" points="290.04 263.21 250.83 263.26 270.69 277.51 290.04 263.21"/><polygon class="cls-2" points="249.82 263.26 250.17 264.31 250.52 263.26 249.82 263.26"/><polygon class="cls-2" points="216.19 263.3 249.82 263.26 249.82 263.26 216.19 263.3"/><rect class="cls-2" x="249.82" y="263.26"/><polygon class="cls-2" points="290.04 263.21 290.04 263.21 270.69 277.51 290.04 263.21"/><rect class="cls-2" x="250" y="263.23" height="1.11"/><polygon class="cls-2" points="250.17 264.31 250.17 264.31 257.7 287.1 250.17 264.31"/><polygon class="cls-2" points="249.82 263.26 249.51 262.31 249.82 263.26 249.82 263.26"/><polygon class="cls-3" points="250.17 264.31 237.96 301.68 257.7 287.1 250.17 264.31"/><polygon class="cls-2" points="250.57 263.07 249.51 262.31 250.57 263.08 250.57 263.07"/><polygon class="cls-3" points="249.51 262.31 211.52 235.67 201.28 243.32 200.42 263.32 216.19 263.3 249.82 263.26 249.51 262.31"/><polygon class="cls-2" points="270.69 277.51 250.83 263.26 250.82 263.26 270.69 277.51"/><polygon class="cls-2" points="271.21 326.51 271.13 326.45 271.13 326.45 271.21 326.51"/><polygon class="cls-2" points="304.75 350.86 271.13 326.45 271.21 326.51 304.75 350.86"/><polygon class="cls-2" points="271.13 326.45 271.13 326.45 270.89 326.28 271.13 326.45"/><polygon class="cls-2" points="271.13 326.45 271.27 326.01 270.89 326.28 271.13 326.45"/><polygon class="cls-4" points="328.09 230.96 327.88 211.81 308.86 217.72 297.42 253.61 328.09 230.96"/><polygon class="cls-4" points="328.09 230.96 333.89 226.67 333.37 203.39 311.2 210.39 308.86 217.72 327.88 211.81 328.09 230.96"/><polygon class="cls-3" points="328.13 235.06 328.09 230.96 297.42 253.61 308.86 217.72 305.43 218.79 291.66 262.01 328.13 235.06"/><polygon class="cls-2" points="237.67 302.57 237.67 302.57 237.78 302.24 237.67 302.57"/><polygon class="cls-4" points="283.74 286.87 291.28 263.21 290.04 263.21 270.69 277.51 283.74 286.87"/><rect class="cls-2" x="289.88" y="262.74" width="1.58"/><polygon class="cls-2" points="291.4 262.57 291.31 262.27 291.31 262.27 291.4 262.57"/><polygon class="cls-2" points="237.67 302.57 238.22 302.57 237.78 302.24 237.67 302.57"/><polygon class="cls-2" points="291.28 263.21 291.28 263.21 283.74 286.87 291.28 263.21"/><polygon class="cls-4" points="235.16 218.9 231.44 217.96 243.35 253.97 211.52 231.13 211.52 235.67 249.51 262.31 235.16 218.9"/><polygon class="cls-3" points="231.44 217.96 211.51 212.9 211.52 231.13 243.35 253.97 231.44 217.96"/><polygon class="cls-2" points="197.06 272.68 207.28 280.1 237.49 302.03 237.49 302.03 197.06 272.68"/><polygon class="cls-2" points="231.44 217.96 229 210.56 206.42 204.29 206.22 227.33 211.52 231.13 211.51 212.9 231.44 217.96"/><polygon class="cls-2" points="291.4 262.57 291.44 262.69 291.44 262.69 291.4 262.57"/><polygon class="cls-2" points="159.9 328.45 160.4 327.07 158.75 325.92 135.55 318.08 94.96 348.04 145.75 347.95 159.9 328.45"/><polygon class="cls-2" points="118.06 351.39 97.94 413.81 125.8 375.43 140.86 354.69 94.96 348.04 97.6 414.27 97.94 413.81 118.06 351.39"/><polygon class="cls-4" points="145.75 347.95 94.96 348.04 140.86 354.69 145.75 347.95"/><polygon class="cls-2" points="97.94 413.81 97.62 414.78 122.56 433.01 125.8 375.43 97.94 413.81"/><polygon class="cls-2" points="97.6 414.27 97.62 414.78 97.94 413.81 97.6 414.27"/><polygon class="cls-2" points="128.58 315.72 57.93 291.83 111.77 331.88 128.58 315.72"/><polygon class="cls-4" points="115.32 262.94 67.48 262.74 135.04 309.51 115.32 262.94"/><polygon class="cls-4" points="128.58 315.72 111.77 331.88 94.96 348.04 135.55 318.08 128.58 315.72"/><polygon class="cls-4" points="57.93 291.83 94.96 348.04 111.77 331.88 57.93 291.83"/><polygon class="cls-2" points="135.04 309.51 67.48 262.74 103.87 307.34 67.48 262.74 57.93 291.83 128.58 315.72 135.04 309.51"/><polygon class="cls-4" points="140.86 354.69 125.8 375.43 122.56 433.01 150.06 356.02 140.86 354.69"/><polygon class="cls-4" points="161.15 326.74 160.74 327.3 190.46 347.88 222.85 347.94 161.15 326.74"/><polygon class="cls-2" points="152.94 347.94 150.06 356.02 216.02 365.57 190.46 347.88 152.94 347.94"/><polygon class="cls-2" points="221.34 349.33 222.38 349.38 221.46 348.95 221.34 349.33"/><polygon class="cls-4" points="216.02 365.57 221.83 347.83 190.46 347.88 216.02 365.57"/><polygon class="cls-4" points="187.2 386.37 216.02 365.57 150.06 356.02 187.2 386.37"/><polygon class="cls-2" points="122.56 433.01 161.14 405.17 150.06 356.02 122.56 433.01"/><polygon class="cls-2" points="161.14 405.17 187.2 386.37 150.06 356.02 161.14 405.17"/><polygon class="cls-2" points="200.19 263.32 190.9 233.4 183.21 263.21 198.05 263.32 200.19 263.32"/><polygon class="cls-4" points="166.22 165.25 162.61 142.19 100.1 164.24 100.63 164.42 166.22 165.25"/><polygon class="cls-4" points="169.78 188.01 145.53 179.73 88.66 195.05 171.22 197.19 169.78 188.01"/><polygon class="cls-2" points="100.1 164.24 99.62 164.4 100.63 164.42 100.1 164.24"/><polygon class="cls-2" points="100.63 164.42 99.62 164.4 88.66 195.05 145.53 179.73 100.63 164.42"/><polygon class="cls-2" points="166.22 165.25 166.22 165.25 169.78 188.01 177.65 190.7 162.61 142.19 166.22 165.25 166.22 165.25"/><polygon class="cls-2" points="203.4 164.79 205.4 90.24 183 153.49 203.4 164.79"/><polygon class="cls-4" points="205.4 90.24 162.61 142.19 183 153.49 205.4 90.24"/><polygon class="cls-2" points="200.47 198.48 201.93 198.54 202.54 196.62 203.2 172.15 162.61 142.19 177.65 190.7 200.47 198.48"/><polygon class="cls-4" points="203.4 164.79 183 153.49 162.61 142.19 203.2 172.15 203.4 164.79"/><polygon class="cls-4" points="190.47 302.79 188.38 305.78 226.52 305.51 195.67 328.29 199.93 329.78 236.75 302.57 190.47 302.79"/><polygon class="cls-2" points="147.57 263.36 135.04 309.51 183.21 263.21 115.32 262.94 135.04 309.51 147.57 263.36"/><polygon class="cls-4" points="196.6 273.02 183.21 263.21 173.65 289.96 196.6 273.02"/><polygon class="cls-2" points="141.3 313.84 173.65 289.96 183.21 263.21 135.04 309.51 141.3 313.84"/><polygon class="cls-4" points="237.67 302.57 236.75 302.57 199.93 329.78 203.71 340.45 222.72 348.35 223.4 346.26 237.67 302.57"/><polygon class="cls-2" points="153.16 241.63 183.21 263.21 171.22 197.19 153.16 241.63"/><polygon class="cls-4" points="127.51 222.27 153.16 241.63 171.22 197.19 127.51 222.27"/><polygon class="cls-2" points="88.66 195.05 127.51 222.27 171.22 197.19 88.66 195.05"/><polygon class="cls-4" points="179.79 197.57 171.22 197.19 183.21 263.21 190.9 233.4 179.79 197.57"/><polygon class="cls-2" points="414.59 374.6 417.83 432.19 442.77 413.95 442.45 412.99 414.59 374.6"/><polygon class="cls-4" points="399.53 353.86 390.33 355.19 417.83 432.19 414.59 374.6 399.53 353.86"/><polygon class="cls-2" points="289.13 421.32 295.93 426.54 325.25 366.69 300.57 385.59 289.13 421.32"/><polygon class="cls-2" points="379.25 404.35 417.83 432.19 390.33 355.19 379.25 404.35"/><polyline class="cls-2" points="234.28 89.34 205.4 90.24 203.4 164.79 211.23 169.14 234.28 89.34 204.12 138.71"/><polygon class="cls-2" points="442.77 413.95 442.79 413.44 442.45 412.99 442.77 413.95"/><polygon class="cls-2" points="300.57 385.59 325.25 366.69 310.14 355.72 300.57 385.59"/><polygon class="cls-2" points="325.25 366.69 353.19 385.54 390.33 355.19 325.25 366.69"/><polygon class="cls-2" points="387.45 347.11 349.93 347.06 325.25 366.69 390.33 355.19 387.45 347.11"/><polygon class="cls-4" points="353.19 385.54 379.25 404.35 390.33 355.19 353.19 385.54"/><polygon class="cls-2" points="428.62 331.06 482.46 291.01 411.81 314.9 428.62 331.06"/><polygon class="cls-4" points="445.43 347.21 482.46 291.01 428.62 331.06 445.43 347.21"/><polygon class="cls-2" points="472.91 261.92 437.1 306.35 472.91 261.92 405.35 308.68 411.81 314.9 482.46 291.01 472.91 261.92"/><polygon class="cls-4" points="442.45 412.99 442.79 413.44 445.43 347.21 422.33 350.56 442.45 412.99"/><polygon class="cls-4" points="399.53 353.86 422.33 350.56 422.33 350.56 422.33 350.56 445.43 347.21 394.64 347.13 399.53 353.86"/><polygon class="cls-2" points="381.64 325.1 379.99 326.24 380.49 327.62 394.64 347.13 445.43 347.21 404.84 317.25 381.64 325.1"/><polygon class="cls-4" points="411.81 314.9 404.84 317.25 445.43 347.21 428.62 331.06 411.81 314.9"/><polygon class="cls-2" points="335.28 494.33 335.78 494.47 334.95 493.88 335.28 494.33"/><polygon class="cls-4" points="196.68 431.06 181.82 476.53 247.06 426.57 196.68 431.06"/><polygon class="cls-2" points="250.99 434.62 206.58 494.54 261.21 455.58 250.99 434.62"/><polygon class="cls-2" points="247.06 426.57 181.82 476.53 235.43 455.58 181.82 476.53 206.58 494.54 250.99 434.62 247.06 426.57"/><polygon class="cls-4" points="206.58 494.54 271.44 476.53 261.21 455.58 206.58 494.54"/><polygon class="cls-2" points="206.97 400.5 247.06 426.57 217.92 366.66 217.76 366.53 217.84 366.47 217.21 365.19 196.68 431.06 247.06 426.57 206.97 400.5"/><polygon class="cls-2" points="226.73 351.38 222.38 349.38 217.21 365.19 230.66 355.45 226.73 351.38"/><polygon class="cls-2" points="245.75 371.83 271.46 407 297.76 371.51 298.72 370.17 285.19 370.25 282.54 374.31 285.19 382.33 271.39 401.31 257.12 382.51 259.81 374.08 257.12 370.42 245.21 370.49 245.75 371.83"/><polygon class="cls-4" points="250.99 434.62 261.21 455.58 271.44 476.53 255.37 428.71 250.99 434.62"/><polygon class="cls-2" points="272.71 408.71 271.54 407.82 269.95 409.04 255.37 428.71 271.44 476.53 286.93 428.17 272.71 408.71"/><polygon class="cls-4" points="291.84 434.89 306.96 455.58 360.78 476.32 295.93 426.54 291.84 434.89"/><polygon class="cls-2" points="334.95 493.88 335.78 494.47 360.78 476.32 306.96 455.58 334.95 493.88"/><polygon class="cls-2" points="360.78 476.32 346.11 431.06 295.93 426.54 360.78 476.32"/><polygon class="cls-2" points="346.11 431.06 336.21 400.5 295.93 426.54 346.11 431.06"/><polygon class="cls-4" points="286.93 428.17 271.44 476.53 291.84 434.89 286.93 428.17"/><polygon class="cls-4" points="336.21 400.5 325.25 366.69 295.93 426.54 336.21 400.5"/><polygon class="cls-2" points="281.7 455.58 334.95 493.88 306.96 455.58 291.84 434.89 271.44 476.53 335.28 494.33 334.95 493.88 281.7 455.58"/><polygon class="cls-3" points="230.66 355.45 270.7 326.42 270.58 326.05 238.23 302.57 237.67 302.57 223.4 346.26 222.38 349.38 226.73 351.38 230.66 355.45"/><polygon class="cls-4" points="336 163.71 336.19 171.06 376.78 141.11 356.39 152.41 336 163.71"/><polygon class="cls-4" points="318.69 347.4 318.56 347 318.74 346.94 304.22 302.12 271.27 326.01 271.13 326.45 304.75 350.86 309.6 354.38 313.53 349.36 318.69 347.4"/><polygon class="cls-2" points="318.87 347.33 318.69 347.4 324.37 364.75 324.49 364.67 318.87 347.33 318.87 347.33"/><polygon class="cls-2" points="324.56 364.88 324.49 364.67 324.37 364.75 324.56 364.88"/><polygon class="cls-4" points="298.72 370.17 297.76 371.51 271.46 407 271.87 407.57 300.57 385.59 309.44 355.19 298.81 370.17 298.72 370.17"/><polygon class="cls-2" points="318.69 347.4 313.53 349.36 309.6 354.38 324.71 365.35 324.56 364.88 324.37 364.75 318.69 347.4"/><polygon class="cls-2" points="298.81 370.17 309.44 355.19 300.67 367.44 298.81 370.17"/><polygon class="cls-2" points="309.44 355.19 309.18 354.99 300.67 367.44 309.44 355.19"/><polygon class="cls-2" points="309.18 354.99 309.6 354.38 271.21 326.51 309.18 354.99"/><polygon class="cls-3" points="271.13 326.45 270.92 327.09 285.19 370.25 297.22 370.17 285.19 370.25 298.72 370.17 300.67 367.44 309.6 354.38 271.21 326.51 271.13 326.45"/><polygon class="cls-2" points="271.21 326.51 309.6 354.38 304.75 350.86 271.21 326.51"/><polygon class="cls-2" points="380.49 327.62 379.99 326.24 379.65 326.48 380.49 327.62"/><polygon class="cls-2" points="379.24 325.91 379.65 326.48 379.99 326.24 379.8 325.72 379.24 325.91"/><polygon class="cls-2" points="379.99 326.24 381.64 325.1 379.8 325.72 379.99 326.24"/><polygon class="cls-4" points="318.87 347.33 325.25 366.69 349.93 347.06 319.74 347 318.87 347.33"/><polygon class="cls-2" points="366.74 289.13 379.8 325.72 381.64 325.1 399.09 313.01 366.74 289.13"/><polygon class="cls-4" points="349.93 347.06 387.45 347.11 380.49 327.62 379.65 326.48 349.93 347.06"/><polygon class="cls-2" points="318.87 347.33 319.74 347 349.93 347.06 318.76 347 318.87 347.33"/><polygon class="cls-2" points="379.24 325.91 338.05 340.05 318.76 347 349.93 347.06 379.65 326.48 379.24 325.91"/><polygon class="cls-4" points="276.11 384.17 282.54 374.31 271.93 390.56 276.11 384.17"/><polygon class="cls-4" points="381.64 325.1 404.84 317.25 399.09 313.01 381.64 325.1"/><polygon class="cls-2" points="271.1 407.48 271.46 407 245.75 371.83 230.66 354.99 240.29 383.82 271.1 407.48"/><polygon class="cls-2" points="272.71 408.71 289.13 421.32 300.57 385.59 271.87 407.57 272.71 408.71"/><polygon class="cls-4" points="249.93 136.56 234.28 89.34 211.23 169.14 249.93 136.56"/><polygon class="cls-4" points="270.93 339.18 259.81 374.08 260.46 374.97 271.93 390.56 267.27 384.22 271.93 390.56 282.54 374.31 282.15 373.14 270.93 339.18"/><polygon class="cls-2" points="260.46 374.97 259.81 374.08 271.93 390.56 260.46 374.97"/><polygon class="cls-2" points="276.11 384.17 271.93 390.56 259.81 374.08 257.12 382.51 271.39 401.31 285.19 382.33 282.54 374.31 282.14 374.92 276.11 384.17"/><polygon class="cls-4" points="282.14 374.92 282.54 374.31 276.11 384.17 282.14 374.92"/><polygon class="cls-3" points="257.12 370.42 259.81 374.08 270.93 339.18 282.15 373.14 282.54 374.31 285.19 370.25 270.92 327.09 257.12 370.42"/><polygon class="cls-2" points="269.95 409.04 271.54 407.82 271.1 407.48 269.95 409.04"/><polygon class="cls-4" points="240.29 383.82 253.1 421.94 269.95 409.04 271.1 407.48 240.29 383.82"/><polygon class="cls-2" points="271.46 407 271.1 407.48 271.54 407.82 271.87 407.57 271.46 407"/><polygon class="cls-2" points="271.54 407.82 272.71 408.71 271.87 407.57 271.54 407.82"/><polygon class="cls-2" points="255.37 428.71 269.95 409.04 253.1 421.94 255.37 428.71"/><polygon class="cls-2" points="240.29 383.82 217.21 365.57 247.06 426.57 253.1 421.94 240.29 383.82"/><polygon class="cls-2" points="247.06 426.57 250.99 434.62 255.37 428.71 253.1 421.94 247.06 426.57"/><polygon class="cls-4" points="230.84 355.58 217.21 365.57 240.29 383.82 230.84 355.58"/><polygon class="cls-2" points="300.67 367.44 298.72 370.17 298.81 370.17 300.67 367.44"/><polygon class="cls-2" points="439.77 163.31 439.29 163.15 438.76 163.33 439.77 163.31"/><polygon class="cls-4" points="336 163.71 333.99 89.15 303.37 89.7 335.27 137.62 303.37 89.7 328.16 168.05 336 163.71"/><polygon class="cls-4" points="376.78 141.11 333.99 89.15 356.39 152.41 376.78 141.11"/><polygon class="cls-4" points="303.37 89.7 289.46 135.47 328.16 168.05 303.37 89.7"/><polygon class="cls-2" points="393.87 178.64 438.76 163.33 373.18 164.16 438.76 163.33 439.29 163.15 376.78 141.11 369.61 186.92 393.87 178.64"/><polygon class="cls-2" points="280.54 166.97 328.16 168.05 289.46 135.47 271.16 200.08 328.16 168.05 280.54 166.97"/><polygon class="cls-4" points="369.61 186.92 376.78 141.11 361.74 189.61 369.61 186.92"/><polygon class="cls-4" points="270.7 326.42 230.66 355.45 245.21 370.49 257.12 370.42 270.92 327.09 270.7 326.42"/><polygon class="cls-2" points="336.85 195.54 337.46 197.45 338.93 197.39 361.74 189.61 376.78 141.11 336.19 171.06 336.85 195.54"/><polygon class="cls-2" points="356.39 152.41 333.99 89.15 336 163.71 356.39 152.41"/><polygon class="cls-4" points="208.94 176.39 241.3 200.27 271.16 200.08 211.23 169.14 208.94 176.39"/><polygon class="cls-2" points="265.32 217.95 271.16 200.08 265.32 217.95 265.32 217.95"/><polygon class="cls-2" points="264.25 217.21 243.7 213.23 265.32 217.95 271.16 200.08 241.3 200.27 264.25 217.21"/><polygon class="cls-2" points="260.1 167.51 211.23 169.14 271.16 200.08 249.93 136.56 211.23 169.14 260.1 167.51"/><polygon class="cls-4" points="271.04 219.44 276.87 217.71 271.16 200.08 265.32 217.95 271.04 219.44"/><polygon class="cls-4" points="330.45 175.3 328.16 168.05 271.16 200.08 298.1 199.18 330.45 175.3"/><polygon class="cls-2" points="298.1 199.18 271.16 200.08 276.87 217.71 298.1 199.18"/><polygon class="cls-2" points="276.87 217.71 271.16 200.08 276.87 217.71 276.87 217.71"/><polygon class="cls-2" points="357.98 263.15 357.95 263.12 357.45 263.12 357.56 263.45 357.98 263.15"/><polygon class="cls-4" points="393.87 178.64 449.85 192.52 439.77 163.31 438.76 163.33 393.87 178.64"/><polygon class="cls-2" points="404.84 317.25 411.81 314.9 405.35 308.68 399.09 313.01 404.84 317.25"/><polygon class="cls-2" points="343.85 272.24 344.63 272.82 357.56 263.45 357.45 263.12 340.96 263.14 341.8 268.5 343.85 272.24"/><polygon class="cls-3" points="328.13 235.06 291.66 262.01 291.44 262.69 291.61 263.21 340.96 263.14 337.63 241.88 328.13 235.06"/><polygon class="cls-4" points="303.99 301.4 304.6 301.84 344.26 273.09 343.79 272.2 343.85 272.24 341.8 268.5 340.96 263.14 291.61 263.21 303.99 301.4"/><polygon class="cls-2" points="357.95 263.12 358.01 263.12 357.98 263.15 405.35 308.68 392.84 262.6 357.95 263.12"/><polygon class="cls-4" points="392.84 262.6 405.35 308.68 425.08 262.11 392.84 262.6"/><polygon class="cls-4" points="366.74 289.13 399.09 313.01 405.35 308.68 357.98 263.15 366.74 289.13"/><polygon class="cls-2" points="357.95 263.12 357.98 263.15 358.01 263.12 357.95 263.12"/><polygon class="cls-2" points="357.19 262.39 357.45 263.12 357.95 263.12 357.19 262.39"/><polygon class="cls-4" points="411.88 221.18 449.85 192.52 368.17 196.1 411.88 221.18"/><polygon class="cls-4" points="357.86 261.95 386.23 240.54 368.17 196.1 357.86 261.95"/><polygon class="cls-2" points="336.92 198.07 294.26 212.02 336.92 198.07 336.9 197.48 298.1 199.18 276.87 217.71 276.87 217.71 295.06 211.86 295.51 212.16 296 212.02 305.43 218.79 308.86 217.72 311.2 210.39 333.37 203.39 333.89 226.67 328.09 230.96 328.13 235.06 337.63 241.88 340.96 263.14 338.11 242.24 336.92 198.07"/><polygon class="cls-4" points="369.61 186.92 368.17 196.1 449.85 192.52 393.87 178.64 369.61 186.92"/><polygon class="cls-2" points="386.23 240.54 411.88 221.18 368.17 196.1 386.23 240.54"/><polygon class="cls-2" points="359.61 196.48 348.49 232.31 357.86 261.95 368.17 196.1 359.61 196.48"/><polygon class="cls-2" points="336.92 198.07 338.11 242.24 340.96 263.14 348.49 232.31 337.58 197.85 336.92 198.07"/><polygon class="cls-4" points="338.93 197.39 337.58 197.85 348.49 232.31 359.61 196.48 338.93 197.39"/><polyline class="cls-2" points="236.79 64.42 233.77 68.44 269.8 179.65 306.13 68.48 303.05 64.56"/><line class="cls-2" x1="303.05" y1="64.56" x2="300.15" y2="60.86"/><line class="cls-2" x1="236.79" y1="64.42" x2="239.63" y2="60.63"/><line class="cls-2" x1="239.63" y1="60.63" x2="242.91" y2="56.27"/><line class="cls-2" x1="300.15" y1="60.86" x2="296.82" y2="56.6"/><polyline class="cls-2" points="239.63 60.63 269.8 153.75 300.15 60.86"/><line class="cls-2" x1="296.82" y1="56.6" x2="293.27" y2="52.07"/><line class="cls-2" x1="242.91" y1="56.27" x2="246.39" y2="51.63"/><line class="cls-2" x1="246.39" y1="51.63" x2="249.61" y2="47.33"/><line class="cls-2" x1="293.27" y1="52.07" x2="289.98" y2="47.89"/><polyline class="cls-2" points="246.39 51.63 269.8 123.88 293.26 52.07"/><line class="cls-2" x1="289.98" y1="47.89" x2="286.26" y2="43.14"/><line class="cls-2" x1="249.61" y1="47.33" x2="253.26" y2="42.47"/><line class="cls-2" x1="253.26" y1="42.47" x2="257.21" y2="37.22"/><line class="cls-2" x1="286.26" y1="43.14" x2="282.25" y2="38.02"/><polyline class="cls-2" points="253.26 42.47 269.8 93.51 286.26 43.14"/><polyline class="cls-2" points="257.21 37.22 269.15 21.3 282.25 38.02"/><polygon class="cls-2" points="305.95 68.63 269.15 21.68 233.94 68.59 269.8 179.28 305.95 68.63"/><polyline class="cls-2" points="470.76 189.01 465.99 187.45 372.26 257.31 489.2 255.98 491.93 251.81"/><line class="cls-2" x1="491.93" y1="251.81" x2="494.5" y2="247.88"/><line class="cls-2" x1="470.76" y1="189.02" x2="475.27" y2="190.49"/><line class="cls-2" x1="475.27" y1="190.49" x2="480.45" y2="192.19"/><line class="cls-2" x1="494.5" y1="247.88" x2="497.46" y2="243.35"/><polyline class="cls-2" points="475.27 190.49 396.78 248.99 494.5 247.88"/><line class="cls-2" x1="497.46" y1="243.35" x2="500.61" y2="238.53"/><line class="cls-2" x1="480.45" y1="192.19" x2="485.97" y2="194"/><line class="cls-2" x1="485.97" y1="194" x2="491.07" y2="195.67"/><line class="cls-2" x1="500.61" y1="238.53" x2="503.52" y2="234.07"/><polyline class="cls-2" points="485.97 194 425.07 239.39 500.61 238.53"/><line class="cls-2" x1="503.52" y1="234.07" x2="506.82" y2="229.03"/><line class="cls-2" x1="491.07" y1="195.67" x2="496.85" y2="197.56"/><line class="cls-2" x1="496.85" y1="197.56" x2="503.09" y2="199.61"/><line class="cls-2" x1="506.82" y1="229.03" x2="510.38" y2="223.58"/><polyline class="cls-2" points="496.85 197.56 453.83 229.63 506.82 229.03"/><polyline class="cls-2" points="503.09 199.61 521.99 205.8 510.38 223.58"/><polygon class="cls-2" points="489.01 255.87 521.64 205.93 465.9 187.66 372.61 257.19 489.01 255.87"/><polyline class="cls-2" points="431.54 456.77 431.63 451.75 337.42 382.55 372.89 493.99 377.68 495.38"/><line class="cls-2" x1="377.68" y1="495.38" x2="382.19" y2="496.69"/><line class="cls-2" x1="431.54" y1="456.77" x2="431.44" y2="461.51"/><line class="cls-2" x1="431.44" y1="461.51" x2="431.33" y2="466.97"/><line class="cls-2" x1="382.19" y1="496.69" x2="387.39" y2="498.2"/><polyline class="cls-2" points="431.44 461.51 352.55 403.57 382.19 496.69"/><line class="cls-2" x1="387.39" y1="498.2" x2="392.92" y2="499.79"/><line class="cls-2" x1="431.33" y1="466.97" x2="431.22" y2="472.77"/><line class="cls-2" x1="431.22" y1="472.77" x2="431.11" y2="478.14"/><line class="cls-2" x1="392.92" y1="499.79" x2="398.02" y2="501.27"/><polyline class="cls-2" points="431.22 472.77 370 427.81 392.92 499.8"/><line class="cls-2" x1="398.02" y1="501.27" x2="403.82" y2="502.95"/><line class="cls-2" x1="431.11" y1="478.14" x2="430.99" y2="484.22"/><line class="cls-2" x1="430.99" y1="484.22" x2="430.86" y2="490.78"/><line class="cls-2" x1="403.82" y1="502.95" x2="410.07" y2="504.77"/><polyline class="cls-2" points="430.99 484.22 387.74 452.45 403.82 502.95"/><polyline class="cls-2" points="430.86 490.78 430.47 510.67 410.07 504.77"/><polygon class="cls-2" points="372.94 493.77 430.24 510.37 431.41 451.72 337.63 382.85 372.94 493.77"/><polyline class="cls-2" points="111.74 454.21 111.64 449.18 205.86 379.98 170.38 491.43 165.59 492.81"/><line class="cls-2" x1="165.59" y1="492.82" x2="161.08" y2="494.12"/><line class="cls-2" x1="111.74" y1="454.21" x2="111.83" y2="458.95"/><line class="cls-2" x1="111.83" y1="458.95" x2="111.94" y2="464.4"/><line class="cls-2" x1="161.08" y1="494.12" x2="155.88" y2="495.63"/><polyline class="cls-2" points="111.83 458.95 190.72 401 161.08 494.12"/><line class="cls-2" x1="155.88" y1="495.63" x2="150.36" y2="497.23"/><line class="cls-2" x1="111.94" y1="464.4" x2="112.05" y2="470.21"/><line class="cls-2" x1="112.05" y1="470.21" x2="112.16" y2="475.57"/><line class="cls-2" x1="150.36" y1="497.23" x2="145.25" y2="498.71"/><polyline class="cls-2" points="112.05 470.21 173.27 425.24 150.36 497.23"/><line class="cls-2" x1="145.25" y1="498.71" x2="139.45" y2="500.39"/><line class="cls-2" x1="112.16" y1="475.57" x2="112.28" y2="481.65"/><line class="cls-2" x1="112.28" y1="481.65" x2="112.41" y2="488.22"/><line class="cls-2" x1="139.45" y1="500.39" x2="133.2" y2="502.2"/><polyline class="cls-2" points="112.28 481.65 155.53 449.89 139.45 500.39"/><polyline class="cls-2" points="112.41 488.22 112.81 508.11 133.2 502.2"/><polygon class="cls-2" points="170.33 491.2 113.03 507.81 111.86 449.16 205.64 380.29 170.33 491.2"/><polyline class="cls-2" points="60.86 187.82 65.64 186.25 159.37 256.11 42.42 254.78 39.69 250.61"/><line class="cls-2" x1="39.69" y1="250.61" x2="37.12" y2="246.68"/><line class="cls-2" x1="60.86" y1="187.82" x2="56.36" y2="189.29"/><line class="cls-2" x1="56.36" y1="189.29" x2="51.17" y2="190.99"/><line class="cls-2" x1="37.12" y1="246.68" x2="34.16" y2="242.15"/><polyline class="cls-2" points="56.36 189.29 134.84 247.79 37.12 246.68"/><line class="cls-2" x1="34.16" y1="242.15" x2="31.01" y2="237.33"/><line class="cls-2" x1="51.17" y1="190.99" x2="45.65" y2="192.8"/><line class="cls-2" x1="45.65" y1="192.8" x2="40.55" y2="194.47"/><line class="cls-2" x1="31.01" y1="237.33" x2="28.1" y2="232.88"/><polyline class="cls-2" points="45.66 192.8 106.56 238.19 31.01 237.33"/><line class="cls-2" x1="28.1" y1="232.88" x2="24.8" y2="227.83"/><line class="cls-2" x1="40.55" y1="194.47" x2="34.77" y2="196.36"/><line class="cls-2" x1="34.77" y1="196.36" x2="28.53" y2="198.41"/><line class="cls-2" x1="24.8" y1="227.83" x2="21.24" y2="222.38"/><polyline class="cls-2" points="34.77 196.36 77.8 228.43 24.8 227.83"/><polyline class="cls-2" points="28.53 198.41 9.63 204.6 21.24 222.38"/><polygon class="cls-2" points="42.62 254.67 9.98 204.73 65.72 186.46 159.01 256 42.62 254.67"/><polygon class="cls-5" points="65.88 186.66 9.26 205.89 42.73 255.09 159.5 256.3 65.88 186.66"/><polygon class="cls-5" points="112.71 447.99 113.56 508.19 170.62 490.1 206.63 379.9 112.71 447.99"/><polygon class="cls-5" points="245.21 370.49 231.51 355.19 216.17 365.64 181.82 476.53 206.58 494.54 271.44 476.53 334.4 493.81 359.45 475.63 323.86 365.8 309.37 355.28 298.72 370.17 285.19 370.25 271.93 390.56 257.12 370.42 245.21 370.49"/><polygon class="cls-5" points="199.93 329.78 176.94 322.15 191 302.9 186.74 291.49 196.41 273.27 183.09 263.6 67.48 262.74 57.24 291.61 94.96 348.04 95.53 362.01 97.69 415.86 122.25 433.72 217.21 365.57 222.85 347.94 203.91 339.56 199.93 329.78"/><polygon class="cls-5" points="373.66 493.42 430.72 511.55 431.51 451.42 338.06 383.58 373.66 493.42"/><polygon class="cls-5" points="328.13 235.06 337.63 241.88 340.96 263.4 357.22 263.38 449.85 192.52 439.77 163.31 377.27 142.29 334.4 89.39 303.37 89.7 270.21 200.23 275.91 217.83 295.51 212.16 305.28 219.02 327.88 211.81 328.13 235.06"/><polygon class="cls-5" points="357.22 263.38 344.49 272.62 353.72 290.77 349.99 301.77 363.44 321.32 341.73 328.48 338.05 340.05 317.84 347.24 323.86 365.8 417.83 432.19 442.77 413.95 445.43 347.21 482.07 291.6 472.88 263.24 357.22 263.38"/><polygon class="cls-5" points="211.51 212.9 235.16 218.9 243.7 213.23 264.62 217.32 270.21 200.23 234.28 89.34 204.96 89.33 162.61 142.19 100.63 164.42 88.66 195.05 183.09 263.6 200.43 263.58 201.28 243.32 211.52 235.67 211.51 212.9"/><polygon class="cls-5" points="306.02 68.58 269.15 21.54 233.87 68.54 269.8 179.42 306.02 68.58"/><polygon class="cls-5" points="488.06 255.87 521.96 207.12 465.73 188.22 372.41 256.61 488.06 255.87"/><polygon class="cls-5" points="235.16 218.9 249.82 263.26 291.61 263.21 305.28 219.02 295.51 212.16 271.04 219.44 243.7 213.23 235.16 218.9"/><polygon class="cls-5" points="211.52 235.67 201.28 243.32 200.19 268 186.74 291.49 191 302.9 237.67 302.57 249.82 263.26 211.52 235.67"/><polygon class="cls-5" points="237.67 302.57 199.93 329.78 203.91 339.56 227.1 350.26 245.21 370.49 257.12 370.42 270.92 327.09 237.67 302.57"/><polyline class="cls-5" points="270.92 327.09 285.19 370.25 298.72 370.17 313.53 349.36 338.05 340.05 341.73 328.48 304.6 301.84 270.43 326.37"/><polygon class="cls-5" points="328.13 235.06 291.61 263.21 304.6 301.84 349.99 301.77 353.72 290.77 341.8 268.5 337.63 241.88 328.13 235.06"/></svg>