<svg id="Layer_1" data-name="Layer 1" xmlns="http://www.w3.org/2000/svg" viewBox="0 0 2482.12 496.88"><defs><style>.cls-1{fill:#7d3a2a;}.cls-1,.cls-2,.cls-3,.cls-4,.cls-5{stroke:#231f20;stroke-linecap:round;stroke-linejoin:round;}.cls-2,.cls-5{fill:none;}.cls-3{fill:#8d3c31;}.cls-4{fill:#66130c;}.cls-5{stroke-width:2px;}.cls-6{fill:#231f20;}</style></defs><polygon class="cls-1" points="332.34 280.41 308.82 280.58 332.34 280.41 332.34 280.41"/><rect class="cls-2" x="345.88" y="322.02" height="0.33"/><polygon class="cls-2" points="367.08 304.85 366.58 305.01 363.09 315.6 345.81 321.97 345.83 322.03 363.7 315.59 367.11 304.87 367.08 304.85"/><rect class="cls-2" x="345.82" y="321.97" height="0.06" transform="translate(-82.41 122.25) rotate(-17.95)"/><polygon class="cls-2" points="345.64 322.03 345.76 322.4 345.93 322.34 345.83 322.03 345.64 322.03"/><polygon class="cls-2" points="332.35 280.43 345.81 321.97 345.81 321.97 332.35 280.43"/><polygon class="cls-3" points="308.82 280.58 301.81 302.57 332.35 280.43 332.34 280.41 308.82 280.58"/><polygon class="cls-2" points="332.34 280.41 332.35 280.43 332.38 280.41 332.34 280.41"/><polygon class="cls-3" points="363.09 315.6 366.58 305.01 367.08 304.85 333.02 280.41 332.38 280.41 332.38 280.41 332.35 280.43 345.81 321.97 363.09 315.6"/><polygon class="cls-2" points="345.81 321.97 345.64 322.03 345.83 322.03 345.81 321.97"/><polygon class="cls-4" points="374.99 280.11 374.77 280.11 374.71 280.3 376.53 282.9 383.64 282.85 396.37 300.61 375.77 307.6 370.4 303.76 367.08 304.85 367.11 304.87 363.7 315.59 401.88 302.49 378.23 269.91 374.99 280.11"/><polygon class="cls-2" points="369.81 253.28 369.08 252.74 369.5 253.5 369.81 253.28"/><polygon class="cls-2" points="369.08 252.74 369.02 252.7 369.46 253.53 369.5 253.5 369.08 252.74"/><rect class="cls-2" x="369.46" y="253.51" width="0.04"/><rect class="cls-2" x="369.46" y="253.39" width="0.38" transform="translate(-78.34 265.68) rotate(-36)"/><polygon class="cls-2" points="369.5 253.5 378.32 269.64 378.23 269.91 401.88 302.49 402.4 302.31 390.3 268.4 369.81 253.28 369.5 253.5"/><polygon class="cls-2" points="381.79 244.59 369.81 253.28 369.81 253.28 381.79 244.59"/><polygon class="cls-2" points="390.3 268.4 381.79 244.59 369.81 253.28 390.3 268.4"/><rect class="cls-2" x="328.38" y="266.85" width="45.41" transform="translate(-85.86 326.41) rotate(-45)"/><polygon class="cls-2" points="370.4 303.76 375.77 307.6 396.37 300.61 383.64 282.85 376.53 282.9 387.24 298.23 370.4 303.76"/><polygon class="cls-3" points="301.27 257.62 289.23 266.51 293.92 280.69 308.82 280.58 313.37 266.3 301.27 257.62"/><polygon class="cls-2" points="301.68 302.99 301.46 302.83 301.28 302.96 301.49 303.58 301.68 302.99"/><polygon class="cls-3" points="370.4 303.76 387.24 298.23 376.53 282.9 341.68 283.14 370.4 303.76"/><rect class="cls-2" x="270.45" y="280.19" width="0.54"/><polygon class="cls-2" points="270.5 280.35 270.77 280.55 270.94 280.03 270.5 280.35"/><polygon class="cls-4" points="367.08 304.85 370.4 303.76 341.68 283.14 376.53 282.9 374.71 280.3 374.77 280.11 333.02 280.41 367.08 304.85"/><rect class="cls-2" x="270.5" y="280.35" transform="translate(-103.57 389.15) rotate(-62.24)"/><polygon class="cls-2" points="270.5 280.35 270.77 280.55 270.5 280.35 270.5 280.35"/><polygon class="cls-4" points="332.13 279.77 313.37 266.3 308.82 280.58 332.34 280.41 332.13 279.77"/><polygon class="cls-2" points="332.34 280.41 332.38 280.41 332.34 280.41 332.34 280.41"/><polygon class="cls-2" points="332.7 280.18 332.7 280.18 332.39 280.4 332.7 280.18"/><polygon class="cls-2" points="332.38 280.41 333.02 280.41 332.7 280.18 332.39 280.4 332.38 280.41"/><polygon class="cls-2" points="332.38 280.41 332.38 280.41 332.39 280.4 332.7 280.18 332.13 279.77 332.34 280.41 332.38 280.41"/><polygon class="cls-2" points="378.23 269.91 378.32 269.64 369.5 253.5 369.46 253.53 378.16 269.81 378.23 269.91"/><polygon class="cls-2" points="332.7 280.18 332.7 280.18 333.02 280.41 332.7 280.18"/><polygon class="cls-2" points="374.77 280.11 374.99 280.11 378.23 269.91 378.16 269.81 374.77 280.11"/><polygon class="cls-3" points="374.77 280.11 378.16 269.81 369.46 253.53 332.7 280.18 333.02 280.41 374.77 280.11"/><polygon class="cls-2" points="332.13 279.77 332.13 279.77 313.37 266.3 332.13 279.77"/><polygon class="cls-2" points="233.02 253.15 224.08 271.12 233.02 253.15 233.02 253.15"/><polygon class="cls-2" points="236.15 244.47 235.94 244.47 235.94 244.51 233.94 244.47 221.1 244.49 233.02 253.15 235.93 248.81 236.15 244.47"/><polygon class="cls-4" points="270.5 280.35 270.94 280.03 282.25 245.39 281.93 244.41 250.76 244.45 236.15 244.47 235.93 248.81 233.02 253.15 233.02 253.15 270.5 280.35"/><polygon class="cls-2" points="270.5 280.35 269.82 280.86 270.5 280.35 270.5 280.35"/><polygon class="cls-3" points="233.02 253.15 224.08 271.12 227.42 281.16 269.82 280.86 270.5 280.35 233.02 253.15"/><polygon class="cls-2" points="236.94 225.94 238.04 185.01 237.43 184.8 227.32 216.75 235.93 244.47 235.94 244.47 236.94 225.94"/><polygon class="cls-2" points="235.93 244.47 233.94 244.47 235.94 244.51 235.93 244.47"/><polygon class="cls-2" points="236.19 184.37 217.02 183.53 227.32 216.75 237.43 184.8 236.19 184.37"/><polygon class="cls-2" points="235.94 244.47 235.93 244.47 235.94 244.51 235.94 244.47"/><polygon class="cls-2" points="270.67 280.85 270.67 280.85 270.67 280.85 270.67 280.85"/><rect class="cls-2" x="332.7" y="280.18"/><polygon class="cls-2" points="271.18 280.85 271.19 280.85 293.92 280.69 271.18 280.85"/><polygon class="cls-4" points="301.81 302.57 308.82 280.58 293.92 280.69 301.17 302.62 301.46 302.83 301.81 302.57"/><polygon class="cls-2" points="301.17 302.62 301.28 302.96 301.46 302.83 301.17 302.62"/><polygon class="cls-2" points="237.54 184.43 236.19 184.37 237.43 184.8 237.54 184.43"/><polygon class="cls-2" points="269.82 280.86 270.67 280.85 270.67 280.85 269.82 280.86"/><polygon class="cls-2" points="270.77 280.55 270.5 280.35 269.82 280.86 270.67 280.85 270.77 280.55"/><rect class="cls-2" x="270.67" y="280.85" width="0.51"/><polygon class="cls-3" points="271.19 280.85 301.17 302.62 293.92 280.69 271.19 280.85"/><polygon class="cls-2" points="320.36 244.37 320.51 243.89 320.36 244.37 320.36 244.37"/><polygon class="cls-2" points="320.66 244.37 320.51 243.89 320.36 244.37 320.66 244.37"/><polygon class="cls-2" points="238.04 185.01 238.06 184.46 237.54 184.43 237.43 184.8 238.04 185.01"/><polygon class="cls-2" points="320.51 243.89 320.71 243.26 320.51 243.89 320.51 243.89"/><rect class="cls-2" x="332.42" y="279.62" height="0.7" transform="translate(-62.91 460.54) rotate(-64.65)"/><polygon class="cls-2" points="320.47 243.78 320.51 243.89 320.71 243.26 320.38 243.5 320.47 243.78"/><polygon class="cls-2" points="289.23 266.51 270.94 280.03 270.94 280.03 289.23 266.51"/><polygon class="cls-3" points="313.37 266.3 332.13 279.77 320.66 244.37 320.36 244.37 313.37 266.3"/><polygon class="cls-2" points="320.38 243.5 319.21 244.37 320.36 244.37 320.51 243.89 320.47 243.78 320.38 243.5"/><polygon class="cls-4" points="236.94 225.94 235.94 244.47 236.15 244.47 236.94 225.94 246.43 218.84 246.43 214.64 241.52 211.11 241.7 189.76 262.63 195.57 264.89 202.43 268.34 203.31 276.26 198.04 238.04 185.01 236.94 225.94"/><polygon class="cls-2" points="274.03 186.03 244.04 163.9 238.11 182.66 238.06 184.46 274.03 186.03"/><polygon class="cls-2" points="238.04 185.01 276.26 198.04 295.3 201.74 274.03 186.03 238.06 184.46 238.04 185.01"/><polygon class="cls-2" points="238.11 182.66 237.54 184.43 238.06 184.46 238.11 182.66"/><polygon class="cls-3" points="281.64 243.54 282.63 244.25 296.29 202.42 276.26 198.04 268.34 203.31 281.64 243.54"/><polygon class="cls-3" points="282.86 244.41 319.2 244.37 320.38 243.5 307 202.2 301.6 203.81 296.29 202.42 282.63 244.25 282.86 244.41"/><polygon class="cls-4" points="320.71 243.26 333.47 203.2 324.28 197.06 307 202.2 314.59 225.64 320.38 243.5 320.71 243.26"/><polygon class="cls-4" points="296.29 202.42 296.29 202.42 282.63 244.25 296.29 202.42"/><polygon class="cls-4" points="270.94 280.03 270.77 280.55 271.18 280.85 293.92 280.69 289.23 266.51 270.94 280.03"/><polygon class="cls-2" points="199.05 303.56 199.37 303.78 199.75 303.25 199.22 303.07 199.05 303.56"/><polygon class="cls-4" points="215.04 177.16 217.02 183.53 236.19 184.37 215.04 177.16"/><polygon class="cls-2" points="246.16 157.18 238.9 153.15 238.72 159.97 244.04 163.9 246.16 157.18"/><polygon class="cls-2" points="323.86 196.78 307 202.2 324.28 197.06 323.86 196.78"/><polygon class="cls-2" points="143.66 152.8 185.26 167 207.74 174.67 204.44 153.57 143.66 152.8"/><polygon class="cls-2" points="231.74 304.69 226.2 308.79 205.72 301.85 217.93 283.88 224.99 283.83 226.92 281.06 223.47 270.58 199.75 303.25 238.79 316.67 235.05 305.78 231.74 304.69"/><polygon class="cls-3" points="231.74 304.69 260.33 283.57 224.99 283.83 214.38 299 231.74 304.69"/><polygon class="cls-2" points="232.6 253.47 211.33 269.17 199.22 303.07 199.75 303.25 223.47 270.58 232.6 253.47"/><polygon class="cls-4" points="205.72 301.85 226.2 308.79 231.74 304.69 214.38 299 224.99 283.83 217.93 283.88 205.72 301.85"/><polygon class="cls-2" points="207.74 174.67 209.08 183.18 217.02 183.53 215.04 177.16 207.74 174.67"/><polygon class="cls-2" points="364.52 183.37 363.16 183.42 363.27 183.79 364.52 183.37"/><polygon class="cls-2" points="363.16 183.42 362.6 181.65 362.64 183.45 363.16 183.42"/><polygon class="cls-2" points="362.66 184 363.27 183.79 363.16 183.42 362.64 183.45 362.66 184"/><polygon class="cls-2" points="362.6 181.65 356.66 162.89 326.67 185.03 362.64 183.45 362.6 181.65"/><polygon class="cls-4" points="361.98 158.96 356.66 162.89 362.6 181.65 361.98 158.96"/><polygon class="cls-2" points="361.8 152.15 354.54 156.17 356.66 162.89 361.98 158.96 361.8 152.15"/><polygon class="cls-2" points="391.62 182.17 392.96 173.66 385.66 176.15 383.68 182.52 391.62 182.17"/><polygon class="cls-2" points="385.66 176.15 364.52 183.37 383.68 182.52 385.66 176.15"/><polygon class="cls-2" points="238.72 159.97 238.11 182.66 244.04 163.9 238.72 159.97"/><polygon class="cls-2" points="337.83 330.11 337.19 329.63 328.97 357.8 337.83 330.11"/><polygon class="cls-2" points="320.87 403.49 324.66 395.75 318.36 390.91 316.32 397.27 320.87 403.49"/><polygon class="cls-4" points="316.32 397.27 318.36 390.91 303.14 379.23 316.32 397.27"/><polygon class="cls-2" points="252.21 340.13 252.37 340.25 252.28 340.08 252.21 340.13"/><polygon class="cls-2" points="264.17 329.86 264.17 329.86 301.28 302.96 264.17 329.86"/><polygon class="cls-2" points="488.7 243.17 444.36 243.35 426.08 286.52 488.7 243.17"/><polygon class="cls-2" points="460.47 383.19 441.82 325.33 420.69 328.39 434.64 347.61 460.47 383.19"/><polygon class="cls-2" points="416.16 322.15 403.04 304.07 409.49 322.14 416.16 322.15"/><polygon class="cls-2" points="412.16 329.63 420.69 328.39 416.16 322.15 409.49 322.14 412.16 329.63"/><polygon class="cls-2" points="192.14 322.9 226.91 322.85 199.37 303.78 198.59 304.84 192.14 322.9"/><polygon class="cls-2" points="176.02 295.23 197.52 302.5 181.34 291.3 176.02 295.23"/><polygon class="cls-2" points="255.99 322.8 243.04 318.03 255.64 323.84 255.99 322.8"/><polygon class="cls-4" points="211.33 269.17 181.34 291.3 197.52 302.5 199.22 303.07 211.33 269.17"/><polygon class="cls-2" points="198.59 304.84 199.37 303.78 199.05 303.56 198.59 304.84"/><polygon class="cls-2" points="175.55 287.29 169.56 293.04 176.02 295.23 181.34 291.3 175.55 287.29"/><polygon class="cls-2" points="180.94 329.16 189.47 330.39 192.14 322.9 185.47 322.92 180.94 329.16"/><polygon class="cls-4" points="185.47 322.92 192.14 322.9 198.59 304.84 185.47 322.92"/><polygon class="cls-2" points="197.52 302.5 199.05 303.56 199.22 303.07 197.52 302.5"/><polygon class="cls-2" points="282.57 244.41 282.63 244.25 281.64 243.54 281.93 244.41 282.57 244.41"/><polygon class="cls-2" points="282.63 244.25 282.57 244.41 282.86 244.41 282.63 244.25"/><polygon class="cls-2" points="324.73 196.93 324.28 197.06 333.47 203.2 324.73 196.93"/><polygon class="cls-2" points="282.63 244.25 282.63 244.25 282.63 244.25 282.63 244.25"/><rect class="cls-2" x="282.74" y="244.19" height="0.29"/><polygon class="cls-4" points="282.57 244.41 282.25 245.39 289.23 266.51 301.27 257.62 282.86 244.41 282.57 244.41"/><polygon class="cls-2" points="281.93 244.41 281.93 244.41 282.57 244.41 281.93 244.41"/><polygon class="cls-2" points="282.63 244.25 282.57 244.41 282.63 244.25 282.63 244.25"/><polygon class="cls-3" points="319.2 244.37 282.86 244.41 301.27 257.62 319.2 244.37"/><polygon class="cls-2" points="281.93 244.41 282.25 245.39 282.57 244.41 281.93 244.41"/><polygon class="cls-2" points="250.76 244.45 281.93 244.41 281.93 244.41 250.76 244.45"/><rect class="cls-2" x="281.93" y="244.41"/><polygon class="cls-2" points="319.21 244.37 319.2 244.37 301.27 257.62 319.21 244.37"/><rect class="cls-2" x="282.09" y="244.39" height="1.03"/><polygon class="cls-2" points="282.25 245.39 282.25 245.39 289.23 266.51 282.25 245.39"/><polygon class="cls-2" points="281.93 244.41 281.64 243.54 281.93 244.41 281.93 244.41"/><polygon class="cls-3" points="282.25 245.39 270.94 280.03 289.23 266.51 282.25 245.39"/><polygon class="cls-2" points="282.63 244.25 281.64 243.54 282.63 244.25 282.63 244.25"/><polygon class="cls-3" points="281.64 243.54 246.43 218.84 236.94 225.94 236.15 244.47 250.76 244.45 281.93 244.41 281.64 243.54"/><polygon class="cls-2" points="301.27 257.62 282.86 244.41 282.86 244.41 301.27 257.62"/><polygon class="cls-2" points="301.76 303.04 301.68 302.98 301.68 302.99 301.76 303.04"/><polygon class="cls-2" points="332.84 325.61 301.68 302.98 301.76 303.04 332.84 325.61"/><polygon class="cls-2" points="301.68 302.99 301.68 302.98 301.46 302.83 301.68 302.99"/><polygon class="cls-2" points="301.68 302.98 301.81 302.57 301.46 302.83 301.68 302.98"/><polygon class="cls-4" points="354.47 214.47 354.28 196.73 336.65 202.21 326.05 235.47 354.47 214.47"/><polygon class="cls-4" points="354.47 214.47 359.85 210.5 359.37 188.93 338.81 195.42 336.65 202.21 354.28 196.73 354.47 214.47"/><polygon class="cls-3" points="354.51 218.28 354.47 214.47 326.05 235.47 336.65 202.21 333.47 203.2 320.71 243.26 354.51 218.28"/><polygon class="cls-2" points="270.67 280.85 270.67 280.85 270.77 280.55 270.67 280.85"/><polygon class="cls-4" points="313.37 266.3 320.36 244.37 319.21 244.37 301.27 257.62 313.37 266.3"/><rect class="cls-2" x="319.06" y="243.93" width="1.46"/><polygon class="cls-2" points="320.47 243.78 320.38 243.5 320.38 243.5 320.47 243.78"/><polygon class="cls-2" points="270.67 280.85 271.18 280.85 270.77 280.55 270.67 280.85"/><polygon class="cls-2" points="320.36 244.37 320.36 244.37 313.37 266.3 320.36 244.37"/><polygon class="cls-4" points="268.34 203.31 264.89 202.43 275.93 235.81 246.43 214.64 246.43 218.84 281.64 243.54 268.34 203.31"/><polygon class="cls-3" points="264.89 202.43 246.42 197.74 246.43 214.64 275.93 235.81 264.89 202.43"/><polygon class="cls-2" points="233.02 253.15 242.5 260.02 270.5 280.35 270.5 280.35 233.02 253.15"/><polygon class="cls-2" points="264.89 202.43 262.63 195.57 241.7 189.76 241.52 211.11 246.43 214.64 246.42 197.74 264.89 202.43"/><polygon class="cls-2" points="320.47 243.78 320.51 243.89 320.51 243.89 320.47 243.78"/><polygon class="cls-2" points="198.59 304.84 199.05 303.56 197.52 302.5 176.02 295.23 138.4 323 185.47 322.92 198.59 304.84"/><polygon class="cls-2" points="159.81 326.1 141.16 383.96 166.98 348.38 180.94 329.16 138.4 323 140.84 384.38 141.16 383.96 159.81 326.1"/><polygon class="cls-4" points="185.47 322.92 138.4 323 180.94 329.16 185.47 322.92"/><polygon class="cls-2" points="141.16 383.96 140.87 384.85 163.98 401.75 166.98 348.38 141.16 383.96"/><polygon class="cls-2" points="140.84 384.38 140.87 384.85 141.16 383.96 140.84 384.38"/><polygon class="cls-2" points="169.56 293.04 104.08 270.9 153.98 308.02 169.56 293.04"/><polygon class="cls-4" points="157.26 244.12 112.93 243.94 175.55 287.29 157.26 244.12"/><polygon class="cls-4" points="169.56 293.04 153.98 308.02 138.4 323 176.02 295.23 169.56 293.04"/><polygon class="cls-4" points="104.08 270.9 138.4 323 153.98 308.02 104.08 270.9"/><polygon class="cls-2" points="175.55 287.29 112.93 243.94 146.65 285.27 112.93 243.94 104.08 270.9 169.56 293.04 175.55 287.29"/><polygon class="cls-4" points="180.94 329.16 166.98 348.38 163.98 401.75 189.47 330.39 180.94 329.16"/><polygon class="cls-4" points="199.75 303.25 199.37 303.78 226.91 322.85 256.93 322.9 199.75 303.25"/><polygon class="cls-2" points="192.14 322.9 189.47 330.39 250.6 339.25 226.91 322.85 192.14 322.9"/><polygon class="cls-2" points="255.53 324.19 256.5 324.24 255.64 323.84 255.53 324.19"/><polygon class="cls-4" points="250.6 339.25 255.99 322.8 226.91 322.85 250.6 339.25"/><polygon class="cls-4" points="223.89 358.52 250.6 339.25 189.47 330.39 223.89 358.52"/><polygon class="cls-2" points="163.98 401.75 199.74 375.95 189.47 330.39 163.98 401.75"/><polygon class="cls-2" points="199.74 375.95 223.89 358.52 189.47 330.39 199.74 375.95"/><polygon class="cls-2" points="235.93 244.47 227.32 216.75 220.19 244.37 233.94 244.47 235.93 244.47"/><polygon class="cls-4" points="204.44 153.57 201.1 132.21 143.16 152.64 143.66 152.8 204.44 153.57"/><polygon class="cls-4" points="207.74 174.67 185.26 167 132.56 181.2 209.08 183.18 207.74 174.67"/><polygon class="cls-2" points="143.16 152.64 142.71 152.79 143.66 152.8 143.16 152.64"/><polygon class="cls-2" points="143.66 152.8 142.71 152.79 132.56 181.2 185.26 167 143.66 152.8"/><polygon class="cls-2" points="204.44 153.57 204.44 153.57 207.74 174.67 215.04 177.16 201.1 132.21 204.44 153.57 204.44 153.57"/><polygon class="cls-2" points="238.9 153.15 240.76 84.06 220 142.68 238.9 153.15"/><polygon class="cls-4" points="240.76 84.06 201.1 132.21 220 142.68 240.76 84.06"/><polygon class="cls-2" points="236.19 184.37 237.54 184.43 238.11 182.66 238.72 159.97 201.1 132.21 215.04 177.16 236.19 184.37"/><polygon class="cls-4" points="238.9 153.15 220 142.68 201.1 132.21 238.72 159.97 238.9 153.15"/><polygon class="cls-4" points="226.92 281.06 224.99 283.83 260.33 283.57 231.74 304.69 235.68 306.07 269.82 280.86 226.92 281.06"/><polygon class="cls-2" points="187.16 244.51 175.55 287.29 220.19 244.37 157.26 244.12 175.55 287.29 187.16 244.51"/><polygon class="cls-4" points="232.6 253.47 220.19 244.37 211.33 269.17 232.6 253.47"/><polygon class="cls-2" points="181.34 291.3 211.33 269.17 220.19 244.37 175.55 287.29 181.34 291.3"/><polygon class="cls-4" points="270.67 280.85 269.82 280.86 235.68 306.07 239.19 315.96 256.81 323.28 257.44 321.35 270.67 280.85"/><polygon class="cls-2" points="192.34 224.37 220.19 244.37 209.08 183.18 192.34 224.37"/><polygon class="cls-4" points="168.57 206.43 192.34 224.37 209.08 183.18 168.57 206.43"/><polygon class="cls-2" points="132.56 181.2 168.57 206.43 209.08 183.18 132.56 181.2"/><polygon class="cls-4" points="217.02 183.53 209.08 183.18 220.19 244.37 227.32 216.75 217.02 183.53"/><polygon class="cls-2" points="434.64 347.61 437.65 400.99 460.76 384.09 460.47 383.19 434.64 347.61"/><polygon class="cls-4" points="420.69 328.39 412.16 329.63 437.65 400.99 434.64 347.61 420.69 328.39"/><polygon class="cls-2" points="318.36 390.91 324.66 395.75 351.84 340.28 328.97 357.8 318.36 390.91"/><polygon class="cls-2" points="401.89 375.18 437.65 400.99 412.16 329.63 401.89 375.18"/><polyline class="cls-2" points="267.52 83.22 240.76 84.06 238.9 153.15 246.16 157.18 267.52 83.22 239.58 128.97"/><polygon class="cls-2" points="460.76 384.09 460.78 383.61 460.47 383.19 460.76 384.09"/><polygon class="cls-2" points="328.97 357.8 351.84 340.28 337.83 330.11 328.97 357.8"/><polygon class="cls-2" points="351.84 340.28 377.74 357.76 412.16 329.63 351.84 340.28"/><polygon class="cls-2" points="409.49 322.14 374.71 322.08 351.84 340.28 412.16 329.63 409.49 322.14"/><polygon class="cls-4" points="377.74 357.76 401.89 375.18 412.16 329.63 377.74 357.76"/><polygon class="cls-2" points="447.64 307.26 497.55 270.13 432.07 292.28 447.64 307.26"/><polygon class="cls-4" points="463.23 322.23 497.55 270.13 447.64 307.26 463.23 322.23"/><polygon class="cls-2" points="488.7 243.17 455.51 284.35 488.7 243.17 426.08 286.52 432.07 292.28 497.55 270.13 488.7 243.17"/><polygon class="cls-4" points="460.47 383.19 460.78 383.61 463.23 322.23 441.82 325.33 460.47 383.19"/><polygon class="cls-4" points="420.69 328.39 441.82 325.33 441.82 325.33 441.82 325.33 463.23 322.23 416.16 322.15 420.69 328.39"/><polygon class="cls-2" points="404.11 301.73 402.58 302.79 403.04 304.07 416.16 322.15 463.23 322.23 425.61 294.46 404.11 301.73"/><polygon class="cls-4" points="432.07 292.28 425.61 294.46 463.23 322.23 447.64 307.26 432.07 292.28"/><polygon class="cls-2" points="361.14 458.59 361.6 458.71 360.83 458.16 361.14 458.59"/><polygon class="cls-4" points="232.67 399.94 218.9 442.09 279.37 395.78 232.67 399.94"/><polygon class="cls-2" points="283.01 403.25 241.86 458.78 292.49 422.67 283.01 403.25"/><polygon class="cls-2" points="279.37 395.78 218.9 442.09 268.59 422.67 218.9 442.09 241.86 458.78 283.01 403.25 279.37 395.78"/><polygon class="cls-4" points="241.86 458.78 301.97 442.09 292.49 422.67 241.86 458.78"/><polygon class="cls-2" points="242.21 371.61 279.37 395.78 252.37 340.25 252.21 340.13 252.28 340.08 251.71 338.89 232.67 399.94 279.37 395.78 242.21 371.61"/><polygon class="cls-2" points="260.53 326.1 256.5 324.24 251.71 338.89 264.17 329.86 260.53 326.1"/><polygon class="cls-2" points="278.16 345.05 301.98 377.64 326.36 344.75 327.25 343.51 314.71 343.58 312.25 347.34 314.71 354.78 301.92 372.37 288.69 354.94 291.18 347.13 288.69 343.74 277.65 343.81 278.16 345.05"/><polygon class="cls-4" points="283.01 403.25 292.49 422.67 301.97 442.09 287.07 397.77 283.01 403.25"/><polygon class="cls-2" points="303.14 379.23 302.06 378.4 300.58 379.53 287.07 397.77 301.97 442.09 316.32 397.27 303.14 379.23"/><polygon class="cls-4" points="320.87 403.49 334.89 422.67 384.77 441.89 324.66 395.75 320.87 403.49"/><polygon class="cls-2" points="360.83 458.16 361.6 458.71 384.77 441.89 334.89 422.67 360.83 458.16"/><polygon class="cls-2" points="384.77 441.89 371.18 399.94 324.66 395.75 384.77 441.89"/><polygon class="cls-2" points="371.18 399.94 362 371.61 324.66 395.75 371.18 399.94"/><polygon class="cls-4" points="316.32 397.27 301.97 442.09 320.87 403.49 316.32 397.27"/><polygon class="cls-4" points="362 371.61 351.84 340.28 324.66 395.75 362 371.61"/><polygon class="cls-2" points="311.48 422.67 360.83 458.16 334.89 422.67 320.87 403.49 301.97 442.09 361.14 458.59 360.83 458.16 311.48 422.67"/><polygon class="cls-3" points="264.17 329.86 301.28 302.96 301.17 302.62 271.19 280.85 270.67 280.85 257.44 321.35 256.5 324.24 260.53 326.1 264.17 329.86"/><polygon class="cls-4" points="361.8 152.15 361.98 158.96 399.61 131.2 380.7 141.67 361.8 152.15"/><polygon class="cls-4" points="345.76 322.4 345.64 322.03 345.81 321.97 332.35 280.43 301.81 302.57 301.68 302.98 332.84 325.61 337.33 328.87 340.98 324.22 345.76 322.4"/><polygon class="cls-2" points="345.93 322.34 345.76 322.4 351.02 338.48 351.13 338.4 345.93 322.34 345.93 322.34"/><polygon class="cls-2" points="351.2 338.6 351.13 338.4 351.02 338.48 351.2 338.6"/><polygon class="cls-4" points="327.25 343.51 326.36 344.75 301.98 377.64 302.37 378.17 328.97 357.8 337.19 329.63 327.33 343.51 327.25 343.51"/><polygon class="cls-2" points="345.76 322.4 340.98 324.22 337.33 328.87 351.34 339.04 351.2 338.6 351.02 338.48 345.76 322.4"/><polygon class="cls-2" points="327.33 343.51 337.19 329.63 329.06 340.98 327.33 343.51"/><polygon class="cls-2" points="337.19 329.63 336.94 329.44 329.06 340.98 337.19 329.63"/><polygon class="cls-2" points="336.94 329.44 337.33 328.87 301.76 303.04 336.94 329.44"/><polygon class="cls-3" points="301.68 302.99 301.49 303.58 314.71 343.58 325.86 343.51 314.71 343.58 327.25 343.51 329.06 340.98 337.33 328.87 301.76 303.04 301.68 302.99"/><polygon class="cls-2" points="301.76 303.04 337.33 328.87 332.84 325.61 301.76 303.04"/><polygon class="cls-2" points="403.04 304.07 402.58 302.79 402.26 303.01 403.04 304.07"/><polygon class="cls-2" points="401.88 302.49 402.26 303.01 402.58 302.79 402.4 302.31 401.88 302.49"/><polygon class="cls-2" points="402.58 302.79 404.11 301.73 402.4 302.31 402.58 302.79"/><polygon class="cls-4" points="345.93 322.34 351.84 340.28 374.71 322.08 346.74 322.03 345.93 322.34"/><polygon class="cls-2" points="390.3 268.4 402.4 302.31 404.11 301.73 420.28 290.53 390.3 268.4"/><polygon class="cls-4" points="374.71 322.08 409.49 322.14 403.04 304.07 402.26 303.01 374.71 322.08"/><polygon class="cls-2" points="345.93 322.34 346.74 322.03 374.71 322.08 345.83 322.03 345.93 322.34"/><polygon class="cls-2" points="401.88 302.49 363.7 315.59 345.83 322.03 374.71 322.08 402.26 303.01 401.88 302.49"/><polygon class="cls-4" points="306.29 356.48 312.25 347.34 302.42 362.41 306.29 356.48"/><polygon class="cls-4" points="404.11 301.73 425.61 294.46 420.28 290.53 404.11 301.73"/><polygon class="cls-2" points="301.65 378.09 301.98 377.64 278.16 345.05 264.17 329.44 273.09 356.16 301.65 378.09"/><polygon class="cls-2" points="303.14 379.23 318.36 390.91 328.97 357.8 302.37 378.17 303.14 379.23"/><polygon class="cls-4" points="282.03 126.99 267.52 83.22 246.16 157.18 282.03 126.99"/><polygon class="cls-4" points="301.49 314.78 291.18 347.13 291.79 347.96 302.42 362.41 298.1 356.53 302.42 362.41 312.25 347.34 311.9 346.26 301.49 314.78"/><polygon class="cls-2" points="291.79 347.96 291.18 347.13 302.42 362.41 291.79 347.96"/><polygon class="cls-2" points="306.29 356.48 302.42 362.41 291.18 347.13 288.69 354.94 301.92 372.37 314.71 354.78 312.25 347.34 311.88 347.91 306.29 356.48"/><polygon class="cls-4" points="311.88 347.91 312.25 347.34 306.29 356.48 311.88 347.91"/><polygon class="cls-3" points="288.69 343.74 291.18 347.13 301.49 314.78 311.9 346.26 312.25 347.34 314.71 343.58 301.49 303.58 288.69 343.74"/><polygon class="cls-2" points="300.58 379.53 302.06 378.4 301.65 378.09 300.58 379.53"/><polygon class="cls-4" points="273.09 356.16 284.97 391.49 300.58 379.53 301.65 378.09 273.09 356.16"/><polygon class="cls-2" points="301.98 377.64 301.65 378.09 302.06 378.4 302.37 378.17 301.98 377.64"/><polygon class="cls-2" points="302.06 378.4 303.14 379.23 302.37 378.17 302.06 378.4"/><polygon class="cls-2" points="287.07 397.77 300.58 379.53 284.97 391.49 287.07 397.77"/><polygon class="cls-2" points="273.09 356.16 251.71 339.25 279.37 395.78 284.97 391.49 273.09 356.16"/><polygon class="cls-2" points="279.37 395.78 283.01 403.25 287.07 397.77 284.97 391.49 279.37 395.78"/><polygon class="cls-4" points="264.34 329.99 251.71 339.25 273.09 356.16 264.34 329.99"/><polygon class="cls-2" points="329.06 340.98 327.25 343.51 327.33 343.51 329.06 340.98"/><polygon class="cls-2" points="457.99 151.78 457.54 151.63 457.05 151.79 457.99 151.78"/><polygon class="cls-4" points="361.8 152.15 359.94 83.05 331.56 83.56 361.13 127.97 331.56 83.56 354.54 156.17 361.8 152.15"/><polygon class="cls-4" points="399.61 131.2 359.94 83.05 380.7 141.67 399.61 131.2"/><polygon class="cls-4" points="331.56 83.56 318.67 125.98 354.54 156.17 331.56 83.56"/><polygon class="cls-2" points="415.44 165.99 457.05 151.79 396.26 152.56 457.05 151.79 457.54 151.63 399.61 131.2 392.96 173.66 415.44 165.99"/><polygon class="cls-2" points="310.4 155.17 354.54 156.17 318.67 125.98 301.7 185.86 354.54 156.17 310.4 155.17"/><polygon class="cls-4" points="392.96 173.66 399.61 131.2 385.66 176.15 392.96 173.66"/><polygon class="cls-4" points="301.28 302.96 264.17 329.86 277.65 343.81 288.69 343.74 301.49 303.58 301.28 302.96"/><polygon class="cls-2" points="362.6 181.65 363.16 183.42 364.52 183.37 385.66 176.15 399.61 131.2 361.98 158.96 362.6 181.65"/><polygon class="cls-2" points="380.7 141.67 359.94 83.05 361.8 152.15 380.7 141.67"/><polygon class="cls-4" points="244.04 163.9 274.03 186.03 301.7 185.86 246.16 157.18 244.04 163.9"/><polygon class="cls-2" points="296.29 202.42 301.7 185.86 296.29 202.42 296.29 202.42"/><polygon class="cls-2" points="295.3 201.74 276.26 198.04 296.29 202.42 301.7 185.86 274.03 186.03 295.3 201.74"/><polygon class="cls-2" points="291.45 155.67 246.16 157.18 301.7 185.86 282.03 126.99 246.16 157.18 291.45 155.67"/><polygon class="cls-4" points="301.6 203.81 307 202.2 301.7 185.86 296.29 202.42 301.6 203.81"/><polygon class="cls-4" points="356.66 162.89 354.54 156.17 301.7 185.86 326.67 185.03 356.66 162.89"/><polygon class="cls-2" points="326.67 185.03 301.7 185.86 307 202.2 326.67 185.03"/><polygon class="cls-2" points="307 202.2 301.7 185.86 307 202.2 307 202.2"/><polygon class="cls-2" points="382.17 244.31 382.15 244.29 381.69 244.29 381.79 244.59 382.17 244.31"/><polygon class="cls-4" points="415.44 165.99 467.32 178.85 457.99 151.78 457.05 151.79 415.44 165.99"/><polygon class="cls-2" points="425.61 294.46 432.07 292.28 426.08 286.52 420.28 290.53 425.61 294.46"/><polygon class="cls-2" points="369.08 252.74 369.81 253.28 381.79 244.59 381.69 244.29 366.4 244.31 367.18 249.27 369.08 252.74"/><polygon class="cls-3" points="354.51 218.28 320.71 243.26 320.51 243.89 320.66 244.37 366.4 244.31 363.31 224.6 354.51 218.28"/><polygon class="cls-4" points="332.13 279.77 332.7 280.18 369.46 253.53 369.02 252.7 369.08 252.74 367.18 249.27 366.4 244.31 320.66 244.37 332.13 279.77"/><polygon class="cls-2" points="382.15 244.29 382.21 244.29 382.17 244.31 426.08 286.52 414.48 243.8 382.15 244.29"/><polygon class="cls-4" points="414.48 243.8 426.08 286.52 444.36 243.35 414.48 243.8"/><polygon class="cls-4" points="390.3 268.4 420.28 290.53 426.08 286.52 382.17 244.31 390.3 268.4"/><polygon class="cls-2" points="382.15 244.29 382.17 244.31 382.21 244.29 382.15 244.29"/><polygon class="cls-2" points="381.44 243.61 381.69 244.29 382.15 244.29 381.44 243.61"/><polygon class="cls-4" points="432.13 205.42 467.32 178.85 391.62 182.17 432.13 205.42"/><polygon class="cls-4" points="382.07 243.2 408.36 223.36 391.62 182.17 382.07 243.2"/><polygon class="cls-2" points="362.66 184 323.12 196.93 362.66 184 362.64 183.45 326.67 185.03 307 202.2 307 202.2 323.86 196.78 324.28 197.06 324.73 196.93 333.47 203.2 336.65 202.21 338.81 195.42 359.37 188.93 359.85 210.5 354.47 214.47 354.51 218.28 363.31 224.6 366.4 244.31 363.76 224.93 362.66 184"/><polygon class="cls-4" points="392.96 173.66 391.62 182.17 467.32 178.85 415.44 165.99 392.96 173.66"/><polygon class="cls-2" points="408.36 223.36 432.13 205.42 391.62 182.17 408.36 223.36"/><polygon class="cls-2" points="383.68 182.52 373.38 215.74 382.07 243.2 391.62 182.17 383.68 182.52"/><polygon class="cls-2" points="362.66 184 363.76 224.93 366.4 244.31 373.38 215.74 363.27 183.79 362.66 184"/><polygon class="cls-4" points="364.52 183.37 363.27 183.79 373.38 215.74 383.68 182.52 364.52 183.37"/><polyline class="cls-2" points="269.85 60.13 267.05 63.85 300.45 166.93 334.12 63.89 331.27 60.25"/><line class="cls-2" x1="331.27" y1="60.25" x2="328.58" y2="56.82"/><line class="cls-2" x1="269.85" y1="60.13" x2="272.49" y2="56.61"/><line class="cls-2" x1="272.49" y1="56.61" x2="275.52" y2="52.57"/><line class="cls-2" x1="328.58" y1="56.82" x2="325.49" y2="52.88"/><polyline class="cls-2" points="272.49 56.61 300.45 142.92 328.58 56.82"/><line class="cls-2" x1="325.49" y1="52.88" x2="322.2" y2="48.68"/><line class="cls-2" x1="275.52" y1="52.57" x2="278.75" y2="48.26"/><line class="cls-2" x1="278.75" y1="48.26" x2="281.74" y2="44.29"/><line class="cls-2" x1="322.2" y1="48.68" x2="319.15" y2="44.8"/><polyline class="cls-2" points="278.75 48.27 300.45 115.24 322.2 48.68"/><line class="cls-2" x1="319.15" y1="44.8" x2="315.71" y2="40.4"/><line class="cls-2" x1="281.74" y1="44.29" x2="285.12" y2="39.78"/><line class="cls-2" x1="285.12" y1="39.78" x2="288.77" y2="34.91"/><line class="cls-2" x1="315.71" y1="40.4" x2="311.98" y2="35.65"/><polyline class="cls-2" points="285.12 39.78 300.45 87.09 315.7 40.4"/><polyline class="cls-2" points="288.77 34.91 299.84 20.16 311.98 35.65"/><polygon class="cls-2" points="333.96 64.03 299.85 20.51 267.21 63.99 300.45 166.58 333.96 64.03"/><polyline class="cls-2" points="486.71 175.6 482.28 174.15 395.41 238.91 503.8 237.67 506.33 233.8"/><line class="cls-2" x1="506.33" y1="233.8" x2="508.71" y2="230.16"/><line class="cls-2" x1="486.71" y1="175.6" x2="490.88" y2="176.97"/><line class="cls-2" x1="490.88" y1="176.97" x2="495.69" y2="178.54"/><line class="cls-2" x1="508.71" y1="230.16" x2="511.46" y2="225.96"/><polyline class="cls-2" points="490.88 176.97 418.14 231.19 508.71 230.16"/><line class="cls-2" x1="511.46" y1="225.96" x2="514.37" y2="221.5"/><line class="cls-2" x1="495.69" y1="178.54" x2="500.8" y2="180.22"/><line class="cls-2" x1="500.8" y1="180.22" x2="505.53" y2="181.77"/><line class="cls-2" x1="514.37" y1="221.5" x2="517.07" y2="217.37"/><polyline class="cls-2" points="500.8 180.22 444.36 222.29 514.37 221.5"/><line class="cls-2" x1="517.07" y1="217.37" x2="520.13" y2="212.69"/><line class="cls-2" x1="505.53" y1="181.77" x2="510.89" y2="183.52"/><line class="cls-2" x1="510.89" y1="183.52" x2="516.67" y2="185.42"/><line class="cls-2" x1="520.13" y1="212.69" x2="523.43" y2="207.64"/><polyline class="cls-2" points="510.89 183.52 471.01 213.25 520.13 212.69"/><polyline class="cls-2" points="516.67 185.42 534.19 191.16 523.43 207.64"/><polygon class="cls-2" points="503.62 237.56 533.87 191.28 482.2 174.35 395.74 238.79 503.62 237.56"/><polyline class="cls-2" points="450.35 423.77 450.44 419.12 363.12 354.98 396 458.27 400.44 459.56"/><line class="cls-2" x1="400.44" y1="459.56" x2="404.62" y2="460.77"/><line class="cls-2" x1="450.35" y1="423.77" x2="450.27" y2="428.17"/><line class="cls-2" x1="450.27" y1="428.17" x2="450.17" y2="433.22"/><line class="cls-2" x1="404.62" y1="460.77" x2="409.43" y2="462.17"/><polyline class="cls-2" points="450.27 428.17 377.14 374.46 404.62 460.77"/><line class="cls-2" x1="409.43" y1="462.17" x2="414.56" y2="463.65"/><line class="cls-2" x1="450.17" y1="433.22" x2="450.06" y2="438.6"/><line class="cls-2" x1="450.06" y1="438.6" x2="449.96" y2="443.57"/><line class="cls-2" x1="414.56" y1="463.65" x2="419.29" y2="465.02"/><polyline class="cls-2" points="450.06 438.6 393.32 396.93 414.56 463.65"/><line class="cls-2" x1="419.29" y1="465.02" x2="424.66" y2="466.58"/><line class="cls-2" x1="449.96" y1="443.57" x2="449.85" y2="449.21"/><line class="cls-2" x1="449.85" y1="449.21" x2="449.73" y2="455.3"/><line class="cls-2" x1="424.66" y1="466.58" x2="430.46" y2="468.26"/><polyline class="cls-2" points="449.85 449.21 409.76 419.77 424.66 466.58"/><polyline class="cls-2" points="449.73 455.3 449.36 473.73 430.46 468.26"/><polygon class="cls-2" points="396.05 458.06 449.15 473.45 450.24 419.09 363.32 355.26 396.05 458.06"/><polyline class="cls-2" points="153.95 421.4 153.85 416.74 241.18 352.6 208.3 455.89 203.86 457.18"/><line class="cls-2" x1="203.86" y1="457.18" x2="199.68" y2="458.39"/><line class="cls-2" x1="153.95" y1="421.4" x2="154.03" y2="425.79"/><line class="cls-2" x1="154.03" y1="425.79" x2="154.13" y2="430.85"/><line class="cls-2" x1="199.68" y1="458.39" x2="194.86" y2="459.79"/><polyline class="cls-2" points="154.03 425.79 227.15 372.08 199.68 458.39"/><line class="cls-2" x1="194.86" y1="459.79" x2="189.74" y2="461.27"/><line class="cls-2" x1="154.13" y1="430.85" x2="154.24" y2="436.23"/><line class="cls-2" x1="154.24" y1="436.23" x2="154.34" y2="441.2"/><line class="cls-2" x1="189.74" y1="461.27" x2="185.01" y2="462.64"/><polyline class="cls-2" points="154.24 436.23 210.98 394.55 189.74 461.27"/><line class="cls-2" x1="185.01" y1="462.64" x2="179.64" y2="464.2"/><line class="cls-2" x1="154.34" y1="441.2" x2="154.45" y2="446.83"/><line class="cls-2" x1="154.45" y1="446.83" x2="154.57" y2="452.92"/><line class="cls-2" x1="179.64" y1="464.2" x2="173.84" y2="465.88"/><polyline class="cls-2" points="154.45 446.83 194.53 417.39 179.64 464.2"/><polyline class="cls-2" points="154.57 452.92 154.94 471.35 173.84 465.88"/><polygon class="cls-2" points="208.25 455.69 155.14 471.08 154.06 416.72 240.98 352.88 208.25 455.69"/><polyline class="cls-2" points="106.79 174.49 111.22 173.04 198.09 237.79 89.7 236.56 87.17 232.69"/><line class="cls-2" x1="87.17" y1="232.69" x2="84.79" y2="229.05"/><line class="cls-2" x1="106.79" y1="174.49" x2="102.62" y2="175.86"/><line class="cls-2" x1="102.62" y1="175.86" x2="97.81" y2="177.43"/><line class="cls-2" x1="84.79" y1="229.05" x2="82.05" y2="224.85"/><polyline class="cls-2" points="102.62 175.86 175.36 230.08 84.79 229.05"/><line class="cls-2" x1="82.05" y1="224.85" x2="79.13" y2="220.39"/><line class="cls-2" x1="97.81" y1="177.43" x2="92.7" y2="179.11"/><line class="cls-2" x1="92.7" y1="179.11" x2="87.97" y2="180.66"/><line class="cls-2" x1="79.13" y1="220.39" x2="76.43" y2="216.26"/><polyline class="cls-2" points="92.7 179.11 149.15 221.18 79.13 220.38"/><line class="cls-2" x1="76.43" y1="216.26" x2="73.37" y2="211.58"/><line class="cls-2" x1="87.97" y1="180.66" x2="82.61" y2="182.41"/><line class="cls-2" x1="82.61" y1="182.41" x2="76.83" y2="184.31"/><line class="cls-2" x1="73.37" y1="211.58" x2="70.07" y2="206.53"/><polyline class="cls-2" points="82.61 182.41 122.49 212.14 73.37 211.58"/><polyline class="cls-2" points="76.83 184.31 59.31 190.05 70.07 206.53"/><polygon class="cls-2" points="89.88 236.45 59.63 190.17 111.3 173.24 197.76 237.68 89.88 236.45"/><polygon class="cls-5" points="111.44 173.43 58.97 191.25 89.99 236.85 198.22 237.96 111.44 173.43"/><polygon class="cls-5" points="154.85 415.63 155.64 471.43 208.52 454.66 241.89 352.53 154.85 415.63"/><polygon class="cls-5" points="277.65 343.81 264.96 329.63 250.74 339.31 218.9 442.09 241.86 458.78 301.97 442.09 360.32 458.1 383.54 441.25 350.55 339.45 337.12 329.71 327.25 343.51 314.71 343.58 302.42 362.41 288.69 343.74 277.65 343.81"/><polygon class="cls-5" points="235.68 306.07 214.38 299 227.42 281.16 223.47 270.58 232.43 253.7 220.08 244.73 112.93 243.94 103.43 270.69 138.4 323 138.92 335.94 140.92 385.85 163.69 402.41 251.71 339.25 256.93 322.9 239.38 315.14 235.68 306.07"/><polygon class="cls-5" points="396.71 457.74 449.6 474.54 450.33 418.81 363.72 355.94 396.71 457.74"/><polygon class="cls-5" points="354.51 218.28 363.31 224.6 366.4 244.55 381.47 244.53 467.32 178.85 457.99 151.78 400.05 132.29 360.32 83.27 331.56 83.56 300.82 186 306.11 202.31 324.28 197.06 333.33 203.41 354.28 196.73 354.51 218.28"/><polygon class="cls-5" points="381.47 244.53 369.67 253.09 378.23 269.91 374.77 280.11 387.24 298.23 367.11 304.87 363.7 315.59 344.98 322.25 350.55 339.45 437.65 400.99 460.76 384.09 463.23 322.23 497.19 270.68 488.67 244.4 381.47 244.53"/><polygon class="cls-5" points="246.42 197.74 268.34 203.31 276.26 198.04 295.65 201.84 300.82 186 267.52 83.22 240.35 83.21 201.1 132.21 143.66 152.8 132.56 181.2 220.08 244.73 236.15 244.71 236.94 225.94 246.43 218.84 246.42 197.74"/><polygon class="cls-5" points="334.01 63.98 299.84 20.38 267.15 63.94 300.45 166.71 334.01 63.98"/><polygon class="cls-5" points="502.74 237.57 534.16 192.38 482.04 174.87 395.55 238.26 502.74 237.57"/><polygon class="cls-5" points="268.34 203.31 281.93 244.41 320.66 244.37 333.33 203.41 324.28 197.06 301.6 203.81 276.26 198.04 268.34 203.31"/><polygon class="cls-5" points="246.43 218.84 236.94 225.94 235.93 248.81 223.47 270.58 227.42 281.16 270.67 280.85 281.93 244.41 246.43 218.84"/><polygon class="cls-5" points="270.67 280.85 235.68 306.07 239.38 315.14 260.87 325.06 277.65 343.81 288.69 343.74 301.49 303.58 270.67 280.85"/><polyline class="cls-5" points="301.49 303.58 314.71 343.58 327.25 343.51 340.98 324.22 363.7 315.59 367.11 304.87 332.7 280.18 301.03 302.91"/><polygon class="cls-5" points="354.51 218.28 320.66 244.37 332.7 280.18 374.77 280.11 378.23 269.91 367.18 249.27 363.31 224.6 354.51 218.28"/><path class="cls-6" d="M640.56,107.17h20.52v1.08q-4.68.14-6.48,2T652.8,118v96.57l-84.62-90.1v78.44a19.39,19.39,0,0,0,.58,5.55,4.17,4.17,0,0,0,1.65,2.44q1.08.66,5.4,1.3v1.08H555.43v-1.08q5.48,0,6.81-1.95t1.33-9.28V129.19q0-9.43-2.63-15.4t-12.13-5.54v-1.08h20l79.5,84.66V117q0-6-2.16-7.38a10.38,10.38,0,0,0-5.54-1.33Z"/><path class="cls-6" d="M671.81,108.39v-1.22H738.5v14.61h-1.08q-2.16-8.13-3.63-9.57t-7.24-1.44h-35v47.6H724c3.21,0,5.26-.3,6.12-.9a3.19,3.19,0,0,0,1.37-2.63h1.08v10h-1.08a3.68,3.68,0,0,0-1.69-2.81,11.58,11.58,0,0,0-4.94-.72H691.55v32.77q0,7.42,1.36,10.7a6.57,6.57,0,0,0,4.35,4.1,36.52,36.52,0,0,0,9,.83H725q8.91,0,11.4-.61a8.43,8.43,0,0,0,4.21-2.43c1.15-1.22,2-3.88,2.66-8h1.08v14.55H671.81v-1.08a12.07,12.07,0,0,0,5.59-1.41q1.9-1.19,1.9-6.15V119c0-3.89-.33-6.62-1-8.21S675.46,108.39,671.81,108.39Z"/><path class="cls-6" d="M853.6,214.9h-1.78L822.55,134,793.8,214.9h-1.62l-34.52-94.7a33.72,33.72,0,0,0-4.46-8.86,8.2,8.2,0,0,0-6.92-3.09v-1.08h25.06v1.08c-2.44,0-3.66.88-3.66,2.66a16.15,16.15,0,0,0,1.15,4.82L797,192.87,820,127.7l-2.23-6.2q-3-8.15-5.66-10.7a8.64,8.64,0,0,0-6.08-2.55v-1.08h24.77v1.08q-3.58,0-3.58,3.09a22.09,22.09,0,0,0,1.51,5l28,76.85,28-78.21a.89.89,0,0,1,.15-.36l1.08-3.68q0-2.66-3.77-2.66v-1.08h15.49v1.08q-6.35.06-10,10.29Z"/><path class="cls-6" d="M1038,112.49l4,11.24h-1.06q-15.4-15.35-36.27-15.34-21.67,0-35,12.89a41.77,41.77,0,0,0-13.35,31.18q0,11.31,5.94,26A55.26,55.26,0,0,0,981,202.63q12.81,9.47,31,9.47a73.22,73.22,0,0,0,23.44-3.86q11.49-3.84,17.11-10.33l.93.29-7.42,11.38q-18,3.88-23.37,4.6a113,113,0,0,1-14.36.72q-33.35,0-47.72-15.44a52.45,52.45,0,0,1-14.36-37,57.32,57.32,0,0,1,7.38-28,53.22,53.22,0,0,1,21.28-21.18q13.9-7.74,31.76-7.74a64.73,64.73,0,0,1,15.45,1.62,85.55,85.55,0,0,1,10.84,3.35l4.75,1.8A1.11,1.11,0,0,1,1038,112.49Z"/><path class="cls-6" d="M1117,105.58q22.34,0,36.52,13.58T1167.73,153q0,26.15-16.42,44t-43.57,17.86q-22,0-36.08-14.4a47.75,47.75,0,0,1-14-34.57q0-13.6,6.77-27.94a56.74,56.74,0,0,1,20.38-23.37Q1098.38,105.58,1117,105.58Zm-.43,103.71a44.4,44.4,0,0,0,21.61-5.87A43.61,43.61,0,0,0,1155,187.25a41,41,0,0,0,6.12-21.17,50.06,50.06,0,0,0-8.25-28,58.6,58.6,0,0,0-21.39-19.73q-13.14-7.14-24.3-7.13-15.78,0-28.63,11.88a38.59,38.59,0,0,0-12.86,29.53q0,22.54,15.7,39.61T1116.6,209.29Z"/><path class="cls-6" d="M1174.43,213.25v-1.08c3.31,0,5.46-.63,6.45-1.87s1.47-3.39,1.47-6.41V117.1q0-4.6-1.15-6.66t-6.91-2.19v-1.08h28.44v1.08q-4,0-5.54,1a4.93,4.93,0,0,0-2.09,2.38,22.81,22.81,0,0,0-.5,6.19v74.47q0,9.59,4.6,13.5t15.75,3.93h13q9.35,0,13.7-4.61t4.85-17.36h1.08v25.5Z"/><path class="cls-6" d="M1254.37,213.25v-1.08c3.31,0,5.46-.63,6.45-1.87s1.47-3.39,1.47-6.41V117.1q0-4.6-1.15-6.66t-6.91-2.19v-1.08h28.44v1.08q-4,0-5.54,1a4.93,4.93,0,0,0-2.09,2.38,22.81,22.81,0,0,0-.5,6.19v74.47q0,9.59,4.6,13.5t15.75,3.93h12.95q9.35,0,13.7-4.61t4.85-17.36h1.08v25.5Z"/><path class="cls-6" d="M1338.27,108.39v-1.22H1405v14.61h-1.08q-2.16-8.13-3.64-9.57t-7.23-1.44h-35v47.6h32.48q4.82,0,6.12-.9a3.19,3.19,0,0,0,1.37-2.63h1.08v10H1398a3.66,3.66,0,0,0-1.7-2.81,11.53,11.53,0,0,0-4.93-.72H1358v32.77q0,7.42,1.36,10.7a6.53,6.53,0,0,0,4.35,4.1,36.47,36.47,0,0,0,9,.83h18.7q8.91,0,11.4-.61a8.35,8.35,0,0,0,4.2-2.43q1.73-1.83,2.67-8h1.08v14.55h-72.53v-1.08a12,12,0,0,0,5.58-1.41c1.28-.79,1.91-2.84,1.91-6.15V119c0-3.89-.33-6.62-1-8.21S1341.92,108.39,1338.27,108.39Z"/><path class="cls-6" d="M1522.06,212.17v1.08h-42.77a78,78,0,0,1-21.57-2.67q-9.26-2.66-18.87-10.11a57.57,57.57,0,0,1-15.56-18.55,47.5,47.5,0,0,1-5.94-22.69q0-12.66,7.45-25.27A56.8,56.8,0,0,1,1446,113.47a61.56,61.56,0,0,1,31.19-7.89q15.61,0,33,6.91l4.4,12.25h-1.06A42.25,42.25,0,0,0,1498.44,113a48.69,48.69,0,0,0-21.42-4.64q-20.51,0-33.61,15.45t-13.1,38.35a61,61,0,0,0,2.16,17,41.45,41.45,0,0,0,8.11,14.69,40.07,40.07,0,0,0,12.74,10.66,51.82,51.82,0,0,0,15.23,4.75,76,76,0,0,0,13.4,1.19l5.69-.14q9.64-.36,12.06-1.8t2.41-7.35V185.09c0-3.12-.64-5.22-1.94-6.3a7.71,7.71,0,0,0-5.55-1.41V176.3h27.44v1.08q-4.61,0-6.15,1.8c-1,1.2-1.55,3.5-1.55,6.9v16.67q0,5,1.33,7.23t4.86,2.19Z"/><path class="cls-6" d="M1530.27,108.39v-1.22H1597v14.61h-1.08q-2.16-8.13-3.63-9.57t-7.24-1.44h-35v47.6h32.48q4.82,0,6.12-.9a3.19,3.19,0,0,0,1.37-2.63h1.08v10H1590a3.66,3.66,0,0,0-1.7-2.81,11.5,11.5,0,0,0-4.93-.72H1550v32.77q0,7.42,1.36,10.7a6.57,6.57,0,0,0,4.35,4.1,36.47,36.47,0,0,0,9,.83h18.7q8.91,0,11.4-.61a8.43,8.43,0,0,0,4.21-2.43c1.15-1.22,2-3.88,2.66-8h1.08v14.55h-72.53v-1.08a12.07,12.07,0,0,0,5.59-1.41q1.91-1.19,1.9-6.15V119c0-3.89-.33-6.62-1-8.21S1533.92,108.39,1530.27,108.39Z"/><path class="cls-6" d="M1607.55,239.32l-.58-.58q7.56-5.33,10.12-11.23a26.77,26.77,0,0,0,2.56-10.44c0-1.88-.51-2.81-1.51-2.81-.1,0-.63.09-1.59.28a6.44,6.44,0,0,1-1.15.29h-.5v.07a7.84,7.84,0,0,1-5.41-2.16,6.84,6.84,0,0,1-2.37-5.25,7.62,7.62,0,0,1,2.23-5.44,7.79,7.79,0,0,1,5.91-2.34,10.12,10.12,0,0,1,7.67,3.71q3.35,3.71,3.34,10.69,0,10.59-6.41,16.49A50.64,50.64,0,0,1,1607.55,239.32Z"/><path class="cls-6" d="M1736.32,105.58q22.32,0,36.51,13.58T1787,153q0,26.15-16.42,44T1727,214.9q-22,0-36.08-14.4a47.72,47.72,0,0,1-14-34.57q0-13.6,6.77-27.94a56.88,56.88,0,0,1,20.38-23.37Q1717.67,105.58,1736.32,105.58Zm-.43,103.71a44.37,44.37,0,0,0,21.6-5.87,43.55,43.55,0,0,0,16.78-16.17,41,41,0,0,0,6.12-21.17,50.05,50.05,0,0,0-8.24-28,58.6,58.6,0,0,0-21.39-19.73q-13.14-7.14-24.31-7.13-15.77,0-28.63,11.88A38.58,38.58,0,0,0,1685,152.61q0,22.54,15.7,39.61T1735.89,209.29Z"/><path class="cls-6" d="M1878.48,107.17v1.08q-4.45-.51-7.92,4.39s-.12.07-.22.21a.8.8,0,0,1-.21.36l-.58.79c-.24.29-.36.48-.36.58l-.72.72-27,37.94,32.32,46.69q5.33,8.07,8.14,10.26a7.8,7.8,0,0,0,5.4,2v1.08H1861v-1.08q3.38.21,3.37-2.37c0-1.39-.74-3.17-2.23-5.32l-28.19-40.62-28.39,39.82s-.56.86-1.68,2.43a6.75,6.75,0,0,0-1.94,4.11c0,1.44,1.2,2.09,3.61,1.95v1.08h-15.85v-1.08a8.16,8.16,0,0,0,6-2.67l1.23-1.29,34.41-48-31.75-45.74c0-.67-.91-1.91-2.73-3.74a7.5,7.5,0,0,0-6.13-2.44v-1.08h26.72v1.08c-2.88,0-4.33.79-4.33,2.37q0,1.72,2.67,5.55L1839,149.58l25-35s.42-.73,1.12-2a8.05,8.05,0,0,0,1.05-2.46c0-.81-.26-1.33-.76-1.55a8.7,8.7,0,0,0-3-.32v-1.08Z"/><path class="cls-6" d="M1893.39,108.25v-1.08h67.12v12.45h-1.08v-.5a.57.57,0,0,1-.14-.43q-1.44-5.47-4-6.7c-1.72-.82-4.36-1.22-7.92-1.22h-34.21v46.74H1945a16.31,16.31,0,0,0,5.61-.65,3.14,3.14,0,0,0,1.72-2.88h1.08v10.15h-1.08q0-3.67-4.74-3.67h-34.44v42.29c0,4,.62,6.54,1.84,7.69s3.32,1.73,6.3,1.73v1.08h-27.87v-1.08c3.27,0,5.33-.63,6.19-1.87a9.11,9.11,0,0,0,1.3-5.26V117.82c0-3.55-.5-6-1.51-7.45S1896.37,108.25,1893.39,108.25Z"/><path class="cls-6" d="M2026.12,105.58q22.32,0,36.51,13.58T2076.82,153q0,26.15-16.42,44t-43.57,17.86q-22,0-36.08-14.4a47.75,47.75,0,0,1-14-34.57q0-13.6,6.77-27.94a56.74,56.74,0,0,1,20.38-23.37Q2007.47,105.58,2026.12,105.58Zm-.43,103.71a44.34,44.34,0,0,0,21.6-5.87,43.55,43.55,0,0,0,16.78-16.17,41,41,0,0,0,6.13-21.17,50.06,50.06,0,0,0-8.25-28,58.6,58.6,0,0,0-21.39-19.73q-13.14-7.14-24.31-7.13-15.76,0-28.62,11.88a38.59,38.59,0,0,0-12.86,29.53q0,22.54,15.7,39.61T2025.69,209.29Z"/><path class="cls-6" d="M2087.48,108.25v-1.08h30.1q11.46,0,16.57.5a28.35,28.35,0,0,1,10.48,3.35,19.6,19.6,0,0,1,8.1,7.71,24.08,24.08,0,0,1,2.74,11.93,27.4,27.4,0,0,1-4.87,15.39,39.46,39.46,0,0,1-13.72,12.36l7.49,11.51q2.45,4.32,13,18.93t16.32,17.81a22.88,22.88,0,0,0,11.16,3.2q5.33,0,12.24-4.1l.43,1.44q-8.62,7.05-22.44,7.06a24.08,24.08,0,0,1-15.83-5.46q-6.63-5.45-23.05-29.92a.42.42,0,0,1-.14-.28l-10.66-16.41-9.46.29h-8.58V203c0,3.26.42,5.6,1.28,7s2.93,2.12,6.21,2.12v1.08h-27.37v-1.08c3.41-.15,5.53-.86,6.37-2.16s1.26-3.93,1.26-7.92V117.82A18.42,18.42,0,0,0,2094,111C2093.31,109.22,2091.13,108.29,2087.48,108.25Zm19.88,1.72v49.77h11.11q13.13,0,19.48-6.19t6.35-16.28a31.43,31.43,0,0,0-6.24-18.55q-6.24-8.75-22-8.75Z"/><path class="cls-6" d="M2204.15,108.25v-1.08h48.68q18.59,0,29.35,2.91a52.29,52.29,0,0,1,18.76,9.18,44.39,44.39,0,0,1,12.68,16,49.72,49.72,0,0,1,4.68,21.78,56.8,56.8,0,0,1-4.86,22.8,59.67,59.67,0,0,1-13.22,19.3,45.54,45.54,0,0,1-17.61,11.09q-9.26,3-28.62,3h-49.84v-1.08h1.3q3.89,0,5.11-3.13t1.22-11.34V120.48q0-8.64-1.47-10.44T2204.15,108.25Zm36.15,1.15H2224v82.31q0,7.78,2.63,11.56t9,5.48q6.35,1.69,17.07,1.69,29.82,0,41.88-15.3t12.06-33.38q0-21.25-16.53-36.81T2240.3,109.4Z"/><path class="cls-6" d="M650.53,284.16h16.75v1.08q-8.49.43-8.49,8.86a39,39,0,0,0,.43,5l11.15,80.36c.68,4,1.43,6.56,2.27,7.68s2.58,1.8,5.22,2v1.08H654v-1.08q4.76.15,4.76-4.58a38.13,38.13,0,0,0-.43-4.22l-10.89-77.91-38,87.79h-.72l-38.25-87.65L559.73,381a24.85,24.85,0,0,0-.29,4.07q0,4.14,4.85,4.14v1.08h-16.2v-1.08q3.67,0,4.71-.9a5.82,5.82,0,0,0,1.62-2.88,26.54,26.54,0,0,0,.87-4.43l12.13-85.7q-3-7.12-5.92-8.57a13.07,13.07,0,0,0-5.71-1.44v-1.08h20l37.31,86.77Z"/><path class="cls-6" d="M711.64,284.16v1.08a10.84,10.84,0,0,0-4.64.65c-1.71.57-2.72,1.41-3,2.51a38.75,38.75,0,0,0-.47,7.85v81.4q0,6.62.54,8.09a4.86,4.86,0,0,0,2.09,2.45q1.54,1,5.51,1v1.08h-28.3v-1.08q5.32,0,6.62-2.05c.87-1.37,1.3-4.47,1.3-9.32V297.18q0-7.55-1.44-9.89t-6.48-2.05v-1.08Z"/><path class="cls-6" d="M722.23,285.24v-1.08h48.68q18.58,0,29.35,2.91A52.15,52.15,0,0,1,819,296.26a44.46,44.46,0,0,1,12.68,16,49.76,49.76,0,0,1,4.68,21.79,56.72,56.72,0,0,1-4.86,22.79,59.72,59.72,0,0,1-13.22,19.3,45.54,45.54,0,0,1-17.61,11.09q-9.26,3-28.63,3H722.23v-1.08h1.29c2.6,0,4.3-1,5.12-3.13s1.22-5.86,1.22-11.34V297.47c0-5.76-.49-9.23-1.47-10.43S725.35,285.24,722.23,285.24Zm36.15,1.15H742.1v82.32q0,7.77,2.63,11.56c1.76,2.52,4.74,4.34,9,5.47s9.91,1.69,17.07,1.69q29.82,0,41.88-15.3t12.06-33.38q0-21.24-16.53-36.8T758.38,286.39Z"/><path class="cls-6" d="M846.75,285.24v-1.08h48.68q18.59,0,29.35,2.91a52.15,52.15,0,0,1,18.76,9.19,44.46,44.46,0,0,1,12.68,16,49.76,49.76,0,0,1,4.68,21.79A56.72,56.72,0,0,1,956,356.86a59.72,59.72,0,0,1-13.22,19.3,45.54,45.54,0,0,1-17.61,11.09q-9.26,3-28.63,3H846.75v-1.08H848c2.6,0,4.3-1,5.12-3.13s1.22-5.86,1.22-11.34V297.47c0-5.76-.49-9.23-1.47-10.43S849.87,285.24,846.75,285.24Zm36.15,1.15H866.62v82.32q0,7.77,2.63,11.56c1.76,2.52,4.74,4.34,9,5.47s9.91,1.69,17.07,1.69q29.81,0,41.88-15.3t12.06-33.38q0-21.24-16.53-36.8T882.9,286.39Z"/><path class="cls-6" d="M967.45,390.24v-1.08q5,0,6.45-1.87c1-1.25,1.47-3.38,1.47-6.41V294.09q0-4.6-1.15-6.66t-6.91-2.19v-1.08h28.44v1.08c-2.64,0-4.49.33-5.54,1a4.82,4.82,0,0,0-2.09,2.37,22.9,22.9,0,0,0-.5,6.2v74.46q0,9.59,4.6,13.51t15.75,3.92h12.94q9.36,0,13.7-4.61t4.86-17.35h1.08v25.49Z"/><path class="cls-6" d="M1051.35,285.38v-1.22H1118v14.62H1117q-2.16-8.14-3.64-9.58t-7.23-1.44h-35v47.6h32.49q4.82,0,6.12-.9a3.18,3.18,0,0,0,1.37-2.63h1.08v10h-1.08a3.67,3.67,0,0,0-1.7-2.8,11.53,11.53,0,0,0-4.93-.72h-33.35v32.76q0,7.43,1.37,10.7a6.53,6.53,0,0,0,4.35,4.1,36,36,0,0,0,9,.83h18.7q8.91,0,11.4-.61a8.35,8.35,0,0,0,4.2-2.43c1.15-1.22,2-3.87,2.66-8h1.08v14.55h-72.52v-1.08a12,12,0,0,0,5.58-1.4q1.9-1.18,1.91-6.16V296c0-3.89-.33-6.62-1-8.2S1055,285.38,1051.35,285.38Z"/><path class="cls-6" d="M1265.53,289.49l4,11.23h-1.06q-15.4-15.33-36.28-15.34-21.66,0-35,12.89a41.77,41.77,0,0,0-13.35,31.19q0,11.31,6,26a55.23,55.23,0,0,0,18.76,24.16q12.81,9.47,31,9.47a73.53,73.53,0,0,0,23.44-3.85q11.49-3.86,17.1-10.34l.94.29-7.42,11.38q-18,3.89-23.37,4.61a113.24,113.24,0,0,1-14.37.72q-33.34,0-47.71-15.45t-14.37-37a57.32,57.32,0,0,1,7.38-28,53.29,53.29,0,0,1,21.29-21.17q13.89-7.74,31.76-7.75a64.58,64.58,0,0,1,15.44,1.62,85,85,0,0,1,10.84,3.35l4.76,1.8A.69.69,0,0,1,1265.53,289.49Z"/><path class="cls-6" d="M1344.54,282.57q22.32,0,36.51,13.58T1395.24,330q0,26.14-16.42,44t-43.57,17.86q-22,0-36.08-14.41a47.72,47.72,0,0,1-14.05-34.57q0-13.6,6.77-27.94a56.88,56.88,0,0,1,20.38-23.37Q1325.89,282.58,1344.54,282.57Zm-.43,103.71a44.37,44.37,0,0,0,21.6-5.87,43.55,43.55,0,0,0,16.78-16.17,40.92,40.92,0,0,0,6.12-21.17,50.1,50.1,0,0,0-8.24-28A58.6,58.6,0,0,0,1359,295.32q-13.14-7.12-24.31-7.13-15.76,0-28.63,11.88a38.59,38.59,0,0,0-12.85,29.53q0,22.54,15.7,39.61T1344.11,386.28Z"/><path class="cls-6" d="M1502.87,284.16h16.75v1.08c-5.67.29-8.49,3.24-8.49,8.86a39,39,0,0,0,.43,5l11.15,80.36q1,6,2.27,7.68t5.22,2v1.08h-23.84v-1.08q4.77.15,4.77-4.58a38.13,38.13,0,0,0-.43-4.22l-10.89-77.91-38,87.79h-.72l-38.24-87.65L1412.06,381a26.1,26.1,0,0,0-.28,4.07c0,2.76,1.61,4.14,4.85,4.14v1.08h-16.21v-1.08c2.45,0,4-.3,4.72-.9a5.82,5.82,0,0,0,1.62-2.88,27.59,27.59,0,0,0,.87-4.43l12.13-85.7q-3-7.12-5.92-8.57a13.07,13.07,0,0,0-5.71-1.44v-1.08h20l37.3,86.77Z"/><path class="cls-6" d="M1633.37,284.16h16.74v1.08q-8.49.43-8.49,8.86a39.31,39.31,0,0,0,.44,5l11.15,80.36q1,6,2.27,7.68t5.22,2v1.08h-23.84v-1.08q4.77.15,4.77-4.58a40.89,40.89,0,0,0-.43-4.22l-10.89-77.91-38,87.79h-.72l-38.24-87.65L1542.56,381a26,26,0,0,0-.29,4.07q0,4.14,4.86,4.14v1.08h-16.21v-1.08c2.45,0,4-.3,4.72-.9a6,6,0,0,0,1.62-2.88,27.63,27.63,0,0,0,.86-4.43l12.14-85.7q-3-7.12-5.93-8.57a13,13,0,0,0-5.7-1.44v-1.08h20l37.31,86.77Z"/><path class="cls-6" d="M1725.44,282.57q22.33,0,36.52,13.58T1776.14,330q0,26.14-16.42,44t-43.57,17.86q-22,0-36.08-14.41a47.75,47.75,0,0,1-14-34.57q0-13.6,6.77-27.94a56.81,56.81,0,0,1,20.38-23.37Q1706.79,282.58,1725.44,282.57ZM1725,386.28a44.4,44.4,0,0,0,21.61-5.87,43.61,43.61,0,0,0,16.78-16.17,40.92,40.92,0,0,0,6.12-21.17,50.11,50.11,0,0,0-8.25-28,58.6,58.6,0,0,0-21.39-19.73q-13.14-7.12-24.3-7.13-15.78,0-28.63,11.88a38.6,38.6,0,0,0-12.86,29.53q0,22.54,15.7,39.61T1725,386.28Z"/><path class="cls-6" d="M1873.8,284.16h20.53v1.08c-3.12.1-5.29.75-6.48,2S1886,291,1886,295v96.58l-84.62-90.11v78.45a19.36,19.36,0,0,0,.58,5.54,4.21,4.21,0,0,0,1.66,2.45,18.93,18.93,0,0,0,5.4,1.29v1.08h-20.38v-1.08q5.46,0,6.8-1.94c.89-1.3,1.33-4.39,1.33-9.29V306.18q0-9.42-2.62-15.4t-12.14-5.54v-1.08h20l79.51,84.66V294q0-6-2.16-7.38a10.41,10.41,0,0,0-5.55-1.33Z"/><path class="cls-6" d="M1948,285.24v-1.08h30.1q11.46,0,16.57.5a28.54,28.54,0,0,1,10.48,3.35,19.56,19.56,0,0,1,8.1,7.72,24,24,0,0,1,2.74,11.92A27.38,27.38,0,0,1,2011.1,323a39.46,39.46,0,0,1-13.72,12.36l7.49,11.51q2.46,4.32,13,18.93t16.32,17.81a22.9,22.9,0,0,0,11.16,3.21q5.33,0,12.24-4.11l.43,1.44q-8.62,7.06-22.44,7.06a24.12,24.12,0,0,1-15.83-5.45q-6.63-5.46-23-29.92a.44.44,0,0,1-.14-.29l-10.66-16.41-9.46.29h-8.58V380c0,3.26.43,5.59,1.28,7s2.93,2.12,6.21,2.12v1.08H1948v-1.08q5.12-.21,6.37-2.16t1.26-7.91V294.81a18.42,18.42,0,0,0-1.08-6.8Q1953.45,285.31,1948,285.24Zm19.88,1.73v49.76H1979q13.14,0,19.48-6.19t6.35-16.28a31.38,31.38,0,0,0-6.24-18.54q-6.24-8.76-22-8.75Z"/><path class="cls-6" d="M2103,282.57q22.34,0,36.52,13.58T2153.67,330q0,26.14-16.42,44t-43.58,17.86q-22,0-36.08-14.41a47.75,47.75,0,0,1-14-34.57q0-13.6,6.77-27.94a56.81,56.81,0,0,1,20.38-23.37Q2084.31,282.58,2103,282.57Zm-.43,103.71a44.4,44.4,0,0,0,21.61-5.87,43.61,43.61,0,0,0,16.78-16.17,40.92,40.92,0,0,0,6.12-21.17,50.11,50.11,0,0,0-8.25-28,58.52,58.52,0,0,0-21.39-19.73q-13.14-7.12-24.3-7.13-15.78,0-28.63,11.88a38.59,38.59,0,0,0-12.85,29.53q0,22.54,15.7,39.61T2102.53,386.28Z"/><path class="cls-6" d="M2222.88,282.57q22.32,0,36.51,13.58T2273.58,330q0,26.14-16.42,44t-43.58,17.86q-22,0-36.08-14.41a47.75,47.75,0,0,1-14-34.57q0-13.6,6.77-27.94a56.81,56.81,0,0,1,20.38-23.37Q2204.23,282.58,2222.88,282.57Zm-.44,103.71a44.4,44.4,0,0,0,21.61-5.87,43.61,43.61,0,0,0,16.78-16.17,40.92,40.92,0,0,0,6.12-21.17,50.11,50.11,0,0,0-8.25-28,58.45,58.45,0,0,0-21.39-19.73q-13.14-7.12-24.3-7.13-15.78,0-28.63,11.88a38.59,38.59,0,0,0-12.85,29.53q0,22.54,15.7,39.61T2222.44,386.28Z"/><path class="cls-6" d="M2381.21,284.16H2398v1.08q-8.49.43-8.49,8.86a40.89,40.89,0,0,0,.43,5l11.16,80.36q1,6,2.27,7.68t5.22,2v1.08H2384.7v-1.08q4.77.15,4.77-4.58a39,39,0,0,0-.44-4.22l-10.88-77.91-38,87.79h-.72l-38.24-87.65L2290.4,381a26,26,0,0,0-.29,4.07q0,4.14,4.86,4.14v1.08h-16.21v-1.08c2.45,0,4-.3,4.72-.9a6,6,0,0,0,1.62-2.88A27.63,27.63,0,0,0,2286,381l12.13-85.7q-3-7.12-5.92-8.57a13,13,0,0,0-5.7-1.44v-1.08h20l37.31,86.77Z"/></svg>