<svg id="Layer_1" data-name="Layer 1" xmlns="http://www.w3.org/2000/svg" viewBox="0 0 214.8 216.79"><defs><style>.cls-1{fill:#7d3a2a;}.cls-1,.cls-2,.cls-3,.cls-4,.cls-5{stroke:#231f20;stroke-linecap:round;stroke-linejoin:round;}.cls-2,.cls-5{fill:none;}.cls-3{fill:#8d3c31;}.cls-4{fill:#66130c;}.cls-5{stroke-width:2px;}</style></defs><polygon class="cls-1" points="144.95 108.98 116.78 109.19 144.95 108.99 144.95 108.98"/><rect class="cls-2" x="161.15" y="158.8" height="0.39"/><polygon class="cls-2" points="186.54 138.24 185.94 138.43 181.77 151.11 161.07 158.74 161.1 158.81 182.5 151.09 186.58 138.26 186.54 138.24"/><rect class="cls-2" x="161.08" y="158.74" height="0.08" transform="translate(-41.09 57.37) rotate(-17.95)"/><polygon class="cls-2" points="160.87 158.81 161.02 159.26 161.22 159.18 161.09 158.81 160.87 158.81"/><polygon class="cls-2" points="144.96 109.01 161.07 158.74 161.07 158.74 144.96 109.01"/><polygon class="cls-3" points="116.78 109.19 108.39 135.52 144.96 109.01 144.95 108.99 116.78 109.19"/><polygon class="cls-2" points="144.95 108.99 144.96 109.01 144.99 108.98 144.95 108.99"/><polygon class="cls-3" points="181.77 151.11 185.94 138.43 186.54 138.24 145.77 108.98 144.99 108.98 144.99 108.98 144.96 109.01 161.07 158.74 181.77 151.11"/><polygon class="cls-2" points="161.07 158.74 160.87 158.81 161.09 158.81 161.07 158.74"/><polygon class="cls-2" points="189.81 76.5 188.93 75.85 189.43 76.77 189.81 76.5"/><polygon class="cls-2" points="188.93 75.85 188.87 75.8 189.39 76.79 189.43 76.77 188.93 75.85"/><rect class="cls-2" x="189.39" y="76.78" width="0.05"/><rect class="cls-2" x="189.39" y="76.63" width="0.46" transform="translate(-8.83 126.09) rotate(-36)"/><rect class="cls-2" x="140.21" y="92.75" width="54.36" transform="translate(-16.56 145.53) rotate(-45)"/><polygon class="cls-3" points="107.75 81.7 93.34 92.34 98.95 109.31 116.78 109.19 122.23 92.09 107.75 81.7"/><polygon class="cls-2" points="108.24 136.01 107.98 135.82 107.77 135.97 108.01 136.72 108.24 136.01"/><polygon class="cls-3" points="190.52 136.93 210.68 130.32 197.85 111.96 156.13 112.25 190.52 136.93"/><rect class="cls-2" x="70.85" y="108.72" width="0.65"/><polygon class="cls-2" points="70.91 108.91 71.23 109.14 71.44 108.53 70.91 108.91"/><polygon class="cls-4" points="186.54 138.24 190.52 136.93 156.13 112.25 197.85 111.96 195.68 108.84 195.75 108.63 145.77 108.98 186.54 138.24"/><rect class="cls-2" x="70.91" y="108.91" transform="translate(-58.49 120.94) rotate(-62.24)"/><polygon class="cls-2" points="70.91 108.91 71.23 109.14 70.91 108.91 70.91 108.91"/><polygon class="cls-4" points="144.7 108.21 122.23 92.09 116.78 109.19 144.95 108.98 144.7 108.21"/><polygon class="cls-2" points="144.95 108.99 144.99 108.98 144.95 108.98 144.95 108.99"/><polygon class="cls-2" points="145.38 108.7 145.38 108.7 145.01 108.97 145.38 108.7"/><polygon class="cls-2" points="144.99 108.98 145.77 108.98 145.38 108.7 145.01 108.97 144.99 108.98"/><polygon class="cls-2" points="144.99 108.98 144.99 108.98 145.01 108.97 145.38 108.7 144.7 108.21 144.95 108.98 144.99 108.98"/><polygon class="cls-2" points="199.89 96.41 199.99 96.09 189.43 76.77 189.4 76.8 199.8 96.29 199.89 96.41"/><polygon class="cls-2" points="145.38 108.7 145.38 108.7 145.77 108.98 145.38 108.7"/><polygon class="cls-2" points="195.75 108.63 196.01 108.63 199.89 96.41 199.8 96.29 195.75 108.63"/><polygon class="cls-3" points="195.75 108.63 199.8 96.29 189.4 76.8 145.38 108.7 145.77 108.98 195.75 108.63"/><polygon class="cls-2" points="144.7 108.21 144.7 108.21 122.23 92.09 144.7 108.21"/><polygon class="cls-2" points="26.04 76.34 15.34 97.85 26.05 76.34 26.04 76.34"/><polygon class="cls-4" points="70.91 108.91 71.44 108.52 84.98 67.06 84.6 65.89 47.28 65.93 29.78 65.95 29.52 71.15 26.04 76.34 26.05 76.34 70.91 108.91"/><polygon class="cls-2" points="70.91 108.91 70.09 109.51 70.91 108.91 70.91 108.91"/><polygon class="cls-3" points="26.05 76.34 15.34 97.85 19.33 109.88 70.09 109.51 70.91 108.91 26.05 76.34"/><polygon class="cls-2" points="29.54 65.95 29.52 65.95 29.53 66 29.54 65.95"/><polygon class="cls-2" points="71.11 109.51 71.11 109.51 71.11 109.51 71.11 109.51"/><rect class="cls-2" x="145.38" y="108.7"/><polygon class="cls-2" points="71.73 109.5 71.73 109.5 98.95 109.31 71.73 109.5"/><polygon class="cls-4" points="108.39 135.52 116.78 109.19 98.95 109.31 107.63 135.57 107.98 135.82 108.39 135.52"/><polygon class="cls-2" points="107.63 135.57 107.77 135.97 107.98 135.82 107.63 135.57"/><polygon class="cls-2" points="70.09 109.51 71.11 109.51 71.11 109.51 70.09 109.51"/><polygon class="cls-2" points="71.23 109.14 70.91 108.91 70.09 109.51 71.11 109.51 71.23 109.14"/><rect class="cls-2" x="71.11" y="109.51" width="0.62"/><polygon class="cls-3" points="71.4 109.32 107.3 135.38 98.62 109.12 71.4 109.32"/><polygon class="cls-2" points="130.6 65.83 130.78 65.26 130.6 65.83 130.6 65.83"/><polygon class="cls-2" points="130.97 65.83 130.78 65.26 130.6 65.83 130.97 65.83"/><polygon class="cls-2" points="130.78 65.26 131.02 64.5 130.78 65.26 130.78 65.26"/><rect class="cls-2" x="145.04" y="108.04" height="0.84" transform="translate(-15.07 193.11) rotate(-64.65)"/><polygon class="cls-2" points="130.74 65.12 130.78 65.26 131.02 64.5 130.63 64.79 130.74 65.12"/><polygon class="cls-2" points="93.34 92.34 71.44 108.52 71.44 108.53 93.34 92.34"/><polygon class="cls-3" points="122.23 92.09 144.7 108.21 130.97 65.83 130.6 65.83 122.23 92.09"/><polygon class="cls-2" points="130.63 64.79 129.22 65.83 130.6 65.83 130.78 65.26 130.74 65.12 130.63 64.79"/><polygon class="cls-3" points="84.25 64.84 85.43 65.68 101.79 15.61 77.81 10.37 68.33 16.67 84.25 64.84"/><polygon class="cls-3" points="85.71 65.88 129.22 65.83 130.63 64.79 114.61 15.34 108.14 17.27 101.79 15.61 85.43 65.68 85.71 65.88"/><polygon class="cls-4" points="131.02 64.5 146.31 16.54 135.3 9.19 114.61 15.34 123.7 43.41 130.63 64.79 131.02 64.5"/><polygon class="cls-4" points="101.79 15.61 101.79 15.61 85.43 65.68 101.79 15.61"/><polygon class="cls-4" points="71.44 108.53 71.23 109.14 71.73 109.5 98.95 109.31 93.34 92.34 71.44 108.53"/><polygon class="cls-3" points="24.51 138.05 58.73 112.77 16.42 113.07 3.73 131.23 24.51 138.05"/><polygon class="cls-2" points="63.33 168.18 63.33 168.19 107.77 135.97 63.33 168.18"/><polygon class="cls-2" points="53.53 159.73 38.04 154.02 53.13 160.98 53.53 159.73"/><polygon class="cls-2" points="85.37 65.88 85.43 65.69 84.25 64.84 84.6 65.89 85.37 65.88"/><polygon class="cls-2" points="85.43 65.69 85.37 65.88 85.71 65.88 85.43 65.69"/><polygon class="cls-2" points="135.84 9.03 135.3 9.19 146.31 16.54 135.84 9.03"/><polygon class="cls-2" points="85.43 65.69 85.43 65.68 85.43 65.69 85.43 65.69"/><rect class="cls-2" x="85.57" y="65.61" height="0.34"/><polygon class="cls-4" points="85.37 65.88 84.98 67.06 93.34 92.34 107.75 81.7 85.71 65.88 85.37 65.88"/><polygon class="cls-2" points="84.6 65.89 84.6 65.89 85.37 65.88 84.6 65.89"/><polygon class="cls-2" points="85.43 65.69 85.37 65.88 85.43 65.69 85.43 65.69"/><polygon class="cls-3" points="129.22 65.83 85.71 65.88 107.75 81.7 129.22 65.83"/><polygon class="cls-2" points="84.6 65.89 84.98 67.06 85.37 65.88 84.6 65.89"/><polygon class="cls-2" points="47.28 65.93 84.6 65.89 84.6 65.89 47.28 65.93"/><rect class="cls-2" x="84.6" y="65.88"/><polygon class="cls-2" points="129.22 65.83 129.22 65.83 107.75 81.7 129.22 65.83"/><rect class="cls-2" x="84.79" y="65.85" height="1.23"/><polygon class="cls-2" points="84.98 67.06 84.98 67.06 93.34 92.34 84.98 67.06"/><polygon class="cls-2" points="84.6 65.89 84.25 64.84 84.6 65.89 84.6 65.89"/><polygon class="cls-3" points="84.98 67.06 71.44 108.52 93.34 92.34 84.98 67.06"/><polygon class="cls-2" points="85.43 65.68 84.25 64.84 85.43 65.69 85.43 65.68"/><polygon class="cls-3" points="84.25 64.84 42.1 35.27 30.73 43.77 29.78 65.95 47.28 65.93 84.6 65.89 84.25 64.84"/><polygon class="cls-2" points="107.75 81.7 85.71 65.88 85.71 65.88 107.75 81.7"/><polygon class="cls-2" points="108.33 136.08 108.24 136 108.24 136.01 108.33 136.08"/><polygon class="cls-2" points="145.54 163.09 108.24 136 108.33 136.08 145.54 163.09"/><polygon class="cls-2" points="108.24 136.01 108.24 136 107.98 135.82 108.24 136.01"/><polygon class="cls-2" points="108.24 136 108.39 135.52 107.98 135.82 108.24 136"/><polygon class="cls-4" points="171.44 30.04 171.22 8.8 150.11 15.36 137.42 55.18 171.44 30.04"/><polygon class="cls-3" points="171.49 34.6 171.44 30.04 137.42 55.18 150.11 15.36 146.31 16.54 131.02 64.5 171.49 34.6"/><polygon class="cls-2" points="71.11 109.51 71.11 109.51 71.23 109.14 71.11 109.51"/><polygon class="cls-4" points="122.23 92.09 130.6 65.83 129.22 65.83 107.75 81.7 122.23 92.09"/><rect class="cls-2" x="129.05" y="65.31" width="1.75"/><polygon class="cls-2" points="130.74 65.12 130.63 64.79 130.63 64.79 130.74 65.12"/><polygon class="cls-2" points="71.11 109.51 71.73 109.5 71.23 109.14 71.11 109.51"/><polygon class="cls-2" points="130.6 65.83 130.6 65.83 122.23 92.09 130.6 65.83"/><polygon class="cls-4" points="68.33 16.67 64.2 15.62 77.41 55.58 42.09 30.24 42.1 35.27 84.25 64.84 68.33 16.67"/><polygon class="cls-3" points="64.2 15.62 42.08 10.01 42.09 30.24 77.41 55.58 64.2 15.62"/><polygon class="cls-2" points="26.05 76.34 37.39 84.57 70.91 108.91 70.91 108.91 26.05 76.34"/><polygon class="cls-2" points="130.74 65.12 130.78 65.26 130.78 65.26 130.74 65.12"/><polygon class="cls-2" points="52.99 161.4 54.15 161.45 53.13 160.98 52.99 161.4"/><polygon class="cls-4" points="18.73 109.76 16.42 113.07 58.73 112.77 24.51 138.05 29.23 139.71 70.09 109.51 18.73 109.76"/><polygon class="cls-4" points="71.11 109.51 70.09 109.51 29.23 139.71 33.42 151.54 54.52 160.31 55.27 157.99 71.11 109.51"/><polygon class="cls-3" points="63.33 168.18 107.77 135.97 107.63 135.57 71.73 109.5 71.11 109.51 55.27 157.99 54.15 161.45 58.97 163.68 63.33 168.18"/><polygon class="cls-4" points="161.02 159.26 160.87 158.81 161.07 158.74 144.96 109.01 108.39 135.52 108.24 136 145.54 163.09 150.93 167 155.29 161.44 161.02 159.26"/><polygon class="cls-2" points="138.95 184.52 150.75 167.9 141.02 181.49 138.95 184.52"/><polygon class="cls-2" points="150.75 167.9 150.46 167.68 141.02 181.49 150.75 167.9"/><polygon class="cls-2" points="150.46 167.68 150.93 167 108.33 136.08 150.46 167.68"/><polygon class="cls-3" points="108.24 136.01 108.01 136.72 123.84 184.6 137.19 184.52 123.84 184.6 138.85 184.52 141.02 181.49 150.93 167 108.33 136.08 108.24 136.01"/><polygon class="cls-2" points="108.33 136.08 150.93 167 145.54 163.09 108.33 136.08"/><polygon class="cls-4" points="113.76 200.06 120.9 189.11 109.13 207.15 113.76 200.06"/><polygon class="cls-4" points="108.02 150.13 95.67 188.86 96.4 189.85 109.13 207.15 103.96 200.12 109.13 207.15 120.9 189.11 120.47 187.82 108.02 150.13"/><polygon class="cls-2" points="96.4 189.85 95.67 188.86 109.13 207.15 96.4 189.85"/><polygon class="cls-4" points="120.46 189.79 120.9 189.11 113.76 200.06 120.46 189.79"/><polygon class="cls-3" points="92.69 184.8 95.67 188.86 108.02 150.13 120.47 187.82 120.9 189.11 123.84 184.6 108.01 136.72 92.69 184.8"/><polygon class="cls-2" points="141.02 181.49 138.85 184.52 138.95 184.52 141.02 181.49"/><polygon class="cls-4" points="107.77 135.97 63.33 168.19 79.47 184.88 92.69 184.8 108.01 136.72 107.77 135.97"/><polygon class="cls-3" points="171.49 34.6 131.02 64.5 130.78 65.26 130.97 65.83 185.73 65.76 182.03 42.16 171.49 34.6"/><polygon class="cls-4" points="144.7 108.21 145.38 108.7 189.39 76.79 188.87 75.8 188.93 75.85 186.66 71.7 185.73 65.76 130.97 65.83 144.7 108.21"/><polygon class="cls-5" points="68.33 16.67 84.6 65.89 130.97 65.83 146.13 16.8 135.3 9.19 108.14 17.27 77.81 10.37 68.33 16.67"/><polygon class="cls-5" points="42.1 35.27 30.73 43.77 29.52 71.15 14.6 97.21 19.33 109.88 71.11 109.51 84.6 65.89 42.1 35.27"/><polygon class="cls-5" points="71.11 109.51 29.23 139.71 33.65 150.56 59.38 162.43 79.47 184.88 92.69 184.8 108.01 136.72 71.11 109.51"/><polyline class="cls-5" points="108.01 136.72 123.84 184.6 138.85 184.52 155.29 161.44 182.5 151.09 186.58 138.26 145.38 108.7 107.47 135.91"/><polygon class="cls-5" points="171.49 34.6 130.97 65.83 145.38 108.7 195.75 108.63 199.89 96.41 186.66 71.7 182.03 42.16 171.49 34.6"/></svg>